<?xml version="1.0" encoding="UTF-8"?>
<svg version="1.1" xmlns="http://www.w3.org/2000/svg" width="2000" height="1910">
<path d="M0 0 C3.15145728 1.71391407 6.27052041 3.4634476 9.34741211 5.30712891 C9.99319214 5.69047897 10.63897217 6.07382904 11.30432129 6.46879578 C13.40430113 7.71710701 15.50095158 8.97088639 17.59741211 10.22509766 C19.06154348 11.09759643 20.52573666 11.96999148 21.98999023 12.84228516 C30.55361314 17.95201803 39.06313382 23.14018515 47.51904297 28.42651367 C56.01286439 33.71564904 64.62682036 38.79829767 73.23852539 43.89208984 C82.72842595 49.5063355 92.18328202 55.17222506 101.59741211 60.91259766 C111.55542443 66.98456942 121.56053951 72.97192032 131.59741211 78.91259766 C142.94626725 85.63040337 154.24787135 92.42009213 165.51147461 99.27978516 C173.02257809 103.85365038 180.55175616 108.39595799 188.09741211 112.91259766 C196.22356596 117.77670875 204.32806741 122.67495379 212.41674805 127.60107422 C223.77739502 134.51929453 235.18993968 141.34445303 246.63650513 148.11950684 C256.56723771 153.998898 266.45290688 159.94677647 276.30639648 165.95458984 C285.69584285 171.67712015 295.13499805 177.31164806 304.59741211 182.91259766 C314.71316977 188.90160873 324.80382061 194.92824769 334.84741211 201.03759766 C335.41915161 201.38534241 335.99089111 201.73308716 336.57995605 202.09136963 C341.15702559 204.87615475 345.73153193 207.66513971 350.3059082 210.4543457 C354.31852352 212.90076884 358.33219235 215.34545121 362.34741211 217.78759766 C362.91882935 218.13518127 363.49024658 218.48276489 364.07897949 218.84088135 C374.22222156 225.00668173 384.42251864 231.07375146 394.6373291 237.12005615 C404.56779347 242.99925522 414.4531874 248.9469475 424.30639648 254.95458984 C433.69584285 260.67712015 443.13499805 266.31164806 452.59741211 271.91259766 C462.71316977 277.90160873 472.80382061 283.92824769 482.84741211 290.03759766 C483.41915161 290.38534241 483.99089111 290.73308716 484.57995605 291.09136963 C489.15702559 293.87615475 493.73153193 296.66513971 498.3059082 299.4543457 C502.31852352 301.90076884 506.33219235 304.34545121 510.34741211 306.78759766 C510.91882935 307.13518127 511.49024658 307.48276489 512.07897949 307.84088135 C522.22222156 314.00668173 532.42251864 320.07375146 542.6373291 326.12005615 C552.56779347 331.99925522 562.4531874 337.9469475 572.30639648 343.95458984 C581.69584285 349.67712015 591.13499805 355.31164806 600.59741211 360.91259766 C610.71316977 366.90160873 620.80382061 372.92824769 630.84741211 379.03759766 C631.41915161 379.38534241 631.99089111 379.73308716 632.57995605 380.09136963 C637.15702559 382.87615475 641.73153193 385.66513971 646.3059082 388.4543457 C650.31852352 390.90076884 654.33219235 393.34545121 658.34741211 395.78759766 C658.91882935 396.13518127 659.49024658 396.48276489 660.07897949 396.84088135 C670.22222156 403.00668173 680.42251864 409.07375146 690.6373291 415.12005615 C700.56779347 420.99925522 710.4531874 426.9469475 720.30639648 432.95458984 C729.69584285 438.67712015 739.13499805 444.31164806 748.59741211 449.91259766 C758.71316977 455.90160873 768.80382061 461.92824769 778.84741211 468.03759766 C779.41915161 468.38534241 779.99089111 468.73308716 780.57995605 469.09136963 C785.15702559 471.87615475 789.73153193 474.66513971 794.3059082 477.4543457 C798.31852352 479.90076884 802.33219235 482.34545121 806.34741211 484.78759766 C806.91882935 485.13518127 807.49024658 485.48276489 808.07897949 485.84088135 C818.22222156 492.00668173 828.42251864 498.07375146 838.6373291 504.12005615 C848.56779347 509.99925522 858.4531874 515.9469475 868.30639648 521.95458984 C877.69583922 527.67711794 887.134852 533.31189919 896.59741211 538.91259766 C908.05658586 545.69547571 919.46798867 552.55133791 930.84106445 559.47753906 C937.62010732 563.60590878 944.41108227 567.7127236 951.22241211 571.78759766 C960.3841856 577.26944223 969.49715124 582.82934582 978.59741211 588.41259766 C977.31087907 592.27219678 975.95509349 592.69359742 972.49975586 594.75634766 C970.85716797 595.74538086 970.85716797 595.74538086 969.18139648 596.75439453 C967.96600545 597.47397085 966.7505074 598.19336644 965.53491211 598.91259766 C964.27340626 599.66772556 963.01234683 600.4235997 961.75170898 601.18017578 C958.3913488 603.19339509 955.024309 605.19513675 951.65472412 607.19287109 C949.63119286 608.39256993 947.60854735 609.59374774 945.58618164 610.79541016 C940.23501897 613.97447927 934.88291014 617.15193233 929.52685547 620.32275391 C920.84876886 625.46292907 912.20905559 630.6619556 903.59741211 635.91259766 C893.63920354 641.98425968 883.63415828 647.97169198 873.59741211 653.91259766 C863.48165445 659.90160873 853.39100361 665.92824769 843.34741211 672.03759766 C842.48980286 672.55921478 842.48980286 672.55921478 841.61486816 673.09136963 C837.60763273 675.52945573 833.6022897 677.970641 829.59741211 680.41259766 C825.01540959 683.20645372 820.43251657 685.99883459 815.84741211 688.78759766 C815.27599487 689.13518127 814.70457764 689.48276489 814.11584473 689.84088135 C803.97260266 696.00668173 793.77230558 702.07375146 783.55749512 708.12005615 C774.20129477 713.65926986 764.88086247 719.25234535 755.59741211 724.91259766 C745.63920729 730.9842574 735.6343134 736.97195823 725.59741211 742.91259766 C712.98669873 750.37709143 700.44173979 757.94326294 687.92553711 765.56494141 C681.70898913 769.34961293 675.47025496 773.09606388 669.22436523 776.83203125 C663.42161632 780.30736818 657.64007255 783.81657607 651.86303711 787.33447266 C639.80807538 794.67520354 627.70574799 801.92967754 615.55969238 809.11868286 C606.20276608 814.65836332 596.88159873 820.25189644 587.59741211 825.91259766 C577.63920354 831.98425968 567.63415828 837.97169198 557.59741211 843.91259766 C547.48165445 849.90160873 537.39100361 855.92824769 527.34741211 862.03759766 C526.48980286 862.55921478 526.48980286 862.55921478 525.61486816 863.09136963 C521.60763273 865.52945573 517.6022897 867.970641 513.59741211 870.41259766 C509.01540959 873.20645372 504.43251657 875.99883459 499.84741211 878.78759766 C499.27599487 879.13518127 498.70457764 879.48276489 498.11584473 879.84088135 C487.97260266 886.00668173 477.77230558 892.07375146 467.55749512 898.12005615 C458.20129477 903.65926986 448.88086247 909.25234535 439.59741211 914.91259766 C429.63920354 920.98425968 419.63415828 926.97169198 409.59741211 932.91259766 C399.48165445 938.90160873 389.39100361 944.92824769 379.34741211 951.03759766 C378.48980286 951.55921478 378.48980286 951.55921478 377.61486816 952.09136963 C373.60763273 954.52945573 369.6022897 956.970641 365.59741211 959.41259766 C361.01540959 962.20645372 356.43251657 964.99883459 351.84741211 967.78759766 C351.27599487 968.13518127 350.70457764 968.48276489 350.11584473 968.84088135 C339.97260266 975.00668173 329.77230558 981.07375146 319.55749512 987.12005615 C310.20129477 992.65926986 300.88086247 998.25234535 291.59741211 1003.91259766 C281.63920354 1009.98425968 271.63415828 1015.97169198 261.59741211 1021.91259766 C251.48165445 1027.90160873 241.39100361 1033.92824769 231.34741211 1040.03759766 C230.48980286 1040.55921478 230.48980286 1040.55921478 229.61486816 1041.09136963 C225.60763273 1043.52945573 221.6022897 1045.970641 217.59741211 1048.41259766 C213.01540959 1051.20645372 208.43251657 1053.99883459 203.84741211 1056.78759766 C203.27599487 1057.13518127 202.70457764 1057.48276489 202.11584473 1057.84088135 C191.97260266 1064.00668173 181.77230558 1070.07375146 171.55749512 1076.12005615 C162.20129477 1081.65926986 152.88086247 1087.25234535 143.59741211 1092.91259766 C133.63920729 1098.9842574 123.6343134 1104.97195823 113.59741211 1110.91259766 C100.98669873 1118.37709143 88.44173979 1125.94326294 75.92553711 1133.56494141 C69.71628539 1137.34517092 63.48494477 1141.08734448 57.24633789 1144.81884766 C51.86570533 1148.0413324 46.50087677 1151.28922147 41.14413452 1154.55122375 C38.14193466 1156.37932578 35.13823963 1158.20483366 32.13012695 1160.02319336 C30.9421214 1160.7415079 29.75413304 1161.45985087 28.56616211 1162.17822266 C27.98162262 1162.53160202 27.39708313 1162.88498138 26.79483032 1163.24906921 C22.88425896 1165.61837621 19.00258694 1168.03050746 15.12866211 1170.45947266 C13.16009047 1171.67330363 11.19135021 1172.88686121 9.22241211 1174.10009766 C8.33183105 1174.67107178 7.44125 1175.2420459 6.52368164 1175.83032227 C5.69465332 1176.33571533 4.865625 1176.8411084 4.01147461 1177.36181641 C2.94340576 1178.03216919 2.94340576 1178.03216919 1.85375977 1178.71606445 C-1.46229948 1179.73973 -3.262789 1178.77307769 -6.40258789 1177.41259766 C-8.34295907 1176.36343366 -10.25109496 1175.2532105 -12.12915039 1174.09619141 C-13.22839844 1173.42346191 -14.32764648 1172.75073242 -15.46020508 1172.05761719 C-16.64934078 1171.32179043 -17.83846814 1170.5859502 -19.02758789 1169.85009766 C-20.27881106 1169.0823483 -21.53044661 1168.31527066 -22.7824707 1167.54882812 C-25.37854615 1165.95876285 -27.97283539 1164.3658459 -30.56567383 1162.77050781 C-36.41575598 1159.17279 -42.28314023 1155.60362591 -48.15258789 1152.03759766 C-48.72164856 1151.69155487 -49.29070923 1151.34551208 -49.87701416 1150.98898315 C-60.02259574 1144.82154782 -70.2252426 1138.75289512 -80.44250488 1132.70513916 C-90.37296926 1126.82594009 -100.25836318 1120.87824781 -110.11157227 1114.87060547 C-119.50101863 1109.14807516 -128.94017383 1103.51354725 -138.40258789 1097.91259766 C-148.51834555 1091.92358658 -158.60899639 1085.89694762 -168.65258789 1079.78759766 C-169.22432739 1079.43985291 -169.79606689 1079.09210815 -170.38513184 1078.73382568 C-174.96220137 1075.94904056 -179.53670771 1073.1600556 -184.11108398 1070.37084961 C-188.1236993 1067.92442648 -192.13736813 1065.47974411 -196.15258789 1063.03759766 C-196.72400513 1062.69001404 -197.29542236 1062.34243042 -197.88415527 1061.98431396 C-208.02739734 1055.81851358 -218.22769442 1049.75144385 -228.44250488 1043.70513916 C-238.37296926 1037.82594009 -248.25836318 1031.87824781 -258.11157227 1025.87060547 C-267.50101863 1020.14807516 -276.94017383 1014.51354725 -286.40258789 1008.91259766 C-296.51834555 1002.92358658 -306.60899639 996.89694762 -316.65258789 990.78759766 C-317.22432739 990.43985291 -317.79606689 990.09210815 -318.38513184 989.73382568 C-322.96220137 986.94904056 -327.53670771 984.1600556 -332.11108398 981.37084961 C-336.1236993 978.92442648 -340.13736813 976.47974411 -344.15258789 974.03759766 C-344.72400513 973.69001404 -345.29542236 973.34243042 -345.88415527 972.98431396 C-356.02739734 966.81851358 -366.22769442 960.75144385 -376.44250488 954.70513916 C-386.37296926 948.82594009 -396.25836318 942.87824781 -406.11157227 936.87060547 C-415.50101863 931.14807516 -424.94017383 925.51354725 -434.40258789 919.91259766 C-444.51834555 913.92358658 -454.60899639 907.89694762 -464.65258789 901.78759766 C-465.22432739 901.43985291 -465.79606689 901.09210815 -466.38513184 900.73382568 C-470.96220137 897.94904056 -475.53670771 895.1600556 -480.11108398 892.37084961 C-484.1236993 889.92442648 -488.13736813 887.47974411 -492.15258789 885.03759766 C-492.72400513 884.69001404 -493.29542236 884.34243042 -493.88415527 883.98431396 C-504.02739734 877.81851358 -514.22769442 871.75144385 -524.44250488 865.70513916 C-534.37296926 859.82594009 -544.25836318 853.87824781 -554.11157227 847.87060547 C-563.501015 842.14807737 -572.94002778 836.51329613 -582.40258789 830.91259766 C-595.01330127 823.44810389 -607.55826021 815.88193238 -620.07446289 808.26025391 C-625.50368211 804.95491283 -630.94772974 801.67541095 -636.40258789 798.41259766 C-642.99838214 794.46733554 -649.5725947 790.48806154 -656.13696289 786.49072266 C-668.19192462 779.14999177 -680.29425201 771.89551777 -692.44030762 764.70651245 C-702.37149697 758.82684494 -712.25762689 752.87869674 -722.11157227 746.87060547 C-731.50101863 741.14807516 -740.94017383 735.51354725 -750.40258789 729.91259766 C-760.51834555 723.92358658 -770.60899639 717.89694762 -780.65258789 711.78759766 C-781.22432739 711.43985291 -781.79606689 711.09210815 -782.38513184 710.73382568 C-786.96220137 707.94904056 -791.53670771 705.1600556 -796.11108398 702.37084961 C-800.1236993 699.92442648 -804.13736813 697.47974411 -808.15258789 695.03759766 C-808.72400513 694.69001404 -809.29542236 694.34243042 -809.88415527 693.98431396 C-820.02739734 687.81851358 -830.22769442 681.75144385 -840.44250488 675.70513916 C-850.37296926 669.82594009 -860.25836318 663.87824781 -870.11157227 657.87060547 C-879.50101863 652.14807516 -888.94017383 646.51354725 -898.40258789 640.91259766 C-911.38243127 633.22791121 -924.29885537 625.4460053 -937.1782074 617.59408569 C-941.4425484 614.99494713 -945.71256222 612.40528108 -949.98461914 609.81884766 C-951.24928239 609.05275883 -952.51393097 608.28664577 -953.77856445 607.52050781 C-955.58887808 606.42378781 -957.3993552 605.32734573 -959.21057129 604.2321167 C-962.94885378 601.9712433 -966.67827539 599.69640203 -970.40258789 597.41259766 C-971.47492676 596.7606543 -972.54726563 596.10871094 -973.65209961 595.43701172 C-974.66159668 594.8127832 -975.67109375 594.18855469 -976.71118164 593.54541016 C-978.06747681 592.71227295 -978.06747681 592.71227295 -979.45117188 591.86230469 C-980.4171228 591.14469971 -980.4171228 591.14469971 -981.40258789 590.41259766 C-981.40258789 589.75259766 -981.40258789 589.09259766 -981.40258789 588.41259766 C-979.34181782 587.01601878 -977.29522936 585.75635628 -975.14086914 584.51806641 C-974.48801437 584.13471634 -973.83515961 583.75136627 -973.16252136 583.35639954 C-971.75367022 582.53001169 -970.34288638 581.70691198 -968.93041992 580.88671875 C-965.21072732 578.72639475 -961.50484626 576.54259002 -957.79711914 574.36181641 C-957.06159821 573.93009125 -956.32607727 573.49836609 -955.56826782 573.05355835 C-949.95976089 569.75669506 -944.4131874 566.37079741 -938.90258789 562.91259766 C-929.61101196 557.10091091 -920.19362622 551.5121888 -910.76147461 545.93310547 C-901.27157405 540.31885981 -891.81671798 534.65297025 -882.40258789 528.91259766 C-872.44457611 522.84062623 -862.43948433 516.85323421 -852.40258789 510.91259766 C-839.79187451 503.44810389 -827.24691557 495.88193238 -814.73071289 488.26025391 C-808.51416491 484.47558238 -802.27543074 480.72913144 -796.02954102 476.99316406 C-790.2267921 473.51782713 -784.44524833 470.00861924 -778.66821289 466.49072266 C-766.61325116 459.14999177 -754.51092377 451.89551777 -742.36486816 444.70651245 C-733.00794186 439.16683199 -723.68677451 433.57329887 -714.40258789 427.91259766 C-704.44437932 421.84093563 -694.43933406 415.85350333 -684.40258789 409.91259766 C-674.28683023 403.92358658 -664.19617939 397.89694762 -654.15258789 391.78759766 C-653.58084839 391.43985291 -653.00910889 391.09210815 -652.42004395 390.73382568 C-648.41280851 388.29573958 -644.40746549 385.85455431 -640.40258789 383.41259766 C-635.82058537 380.61874159 -631.23769235 377.82636073 -626.65258789 375.03759766 C-626.08117065 374.69001404 -625.50975342 374.34243042 -624.92102051 373.98431396 C-614.77777844 367.81851358 -604.57748136 361.75144385 -594.3626709 355.70513916 C-585.00647055 350.16592545 -575.68603825 344.57284996 -566.40258789 338.91259766 C-556.44437932 332.84093563 -546.43933406 326.85350333 -536.40258789 320.91259766 C-526.28683023 314.92358658 -516.19617939 308.89694762 -506.15258789 302.78759766 C-505.58084839 302.43985291 -505.00910889 302.09210815 -504.42004395 301.73382568 C-500.41280851 299.29573958 -496.40746549 296.85455431 -492.40258789 294.41259766 C-487.82058537 291.61874159 -483.23769235 288.82636073 -478.65258789 286.03759766 C-478.08117065 285.69001404 -477.50975342 285.34243042 -476.92102051 284.98431396 C-466.77777844 278.81851358 -456.57748136 272.75144385 -446.3626709 266.70513916 C-437.00647055 261.16592545 -427.68603825 255.57284996 -418.40258789 249.91259766 C-408.44437932 243.84093563 -398.43933406 237.85350333 -388.40258789 231.91259766 C-378.28683023 225.92358658 -368.19617939 219.89694762 -358.15258789 213.78759766 C-357.58084839 213.43985291 -357.00910889 213.09210815 -356.42004395 212.73382568 C-352.41280851 210.29573958 -348.40746549 207.85455431 -344.40258789 205.41259766 C-339.82058537 202.61874159 -335.23769235 199.82636073 -330.65258789 197.03759766 C-330.08117065 196.69001404 -329.50975342 196.34243042 -328.92102051 195.98431396 C-318.77777844 189.81851358 -308.57748136 183.75144385 -298.3626709 177.70513916 C-289.00647055 172.16592545 -279.68603825 166.57284996 -270.40258789 160.91259766 C-260.44438307 154.84093792 -250.43948919 148.85323709 -240.40258789 142.91259766 C-227.79187451 135.44810389 -215.24691557 127.88193238 -202.73071289 120.26025391 C-196.51416491 116.47558238 -190.27543074 112.72913144 -184.02954102 108.99316406 C-178.2267921 105.51782713 -172.44524833 102.00861924 -166.66821289 98.49072266 C-154.61325116 91.14999177 -142.51092377 83.89551777 -130.36486816 76.70651245 C-121.00794186 71.16683199 -111.68677451 65.57329887 -102.40258789 59.91259766 C-92.44437666 53.84093401 -82.43922651 47.85368816 -72.40258789 41.91259766 C-62.82959397 36.24405644 -53.27227797 30.55205577 -43.76248169 24.77798462 C-42.04579092 23.73614486 -40.32759042 22.69679407 -38.609375 21.6574707 C-33.33699404 18.45805007 -28.09037149 15.23046633 -22.8972168 11.90437317 C-20.49938196 10.36948163 -18.0938534 8.84686377 -15.68817139 7.3243103 C-14.00375135 6.24976237 -12.33212714 5.1552393 -10.66088867 4.06030273 C-9.14277588 3.09966919 -9.14277588 3.09966919 -7.59399414 2.11962891 C-6.7091333 1.54704346 -5.82427246 0.97445801 -4.91259766 0.38452148 C-2.40258789 -0.58740234 -2.40258789 -0.58740234 0 0 Z " fill="#F71A3C" transform="translate(1001.402587890625,19.58740234375)"/>
<path d="M0 0 C2.83071236 1.06376679 5.29426066 2.49062784 7.90039062 4.02685547 C8.46190323 4.3562915 9.02341583 4.68572754 9.60194397 5.02514648 C11.45454617 6.11426669 13.30255163 7.21092612 15.15039062 8.30810547 C16.45552404 9.07849743 17.76078322 9.84867638 19.06616211 10.61865234 C31.92053654 18.21486069 44.67719582 25.971461 57.42047119 33.7520752 C62.57767891 36.9002955 67.73784049 40.04365409 72.90039062 43.18310547 C73.47153595 43.53050781 74.04268127 43.87791016 74.63113403 44.23583984 C84.7746447 50.40183491 94.97521253 56.4690908 105.19030762 62.51556396 C115.6911967 68.73247538 126.13793119 75.0321788 136.55688477 81.38525391 C145.52535448 86.84752125 154.54975107 92.21207883 163.58789062 97.55810547 C173.14951086 103.21408506 182.65748891 108.93595931 192.07763672 114.82568359 C200.56981323 120.11323398 209.18171873 125.19494107 217.79150391 130.28759766 C227.28140447 135.90184331 236.73626054 141.56773288 246.15039062 147.30810547 C256.10840618 153.3800792 266.11364929 159.36720265 276.15039062 165.30810547 C286.26614828 171.29711654 296.35679913 177.32375551 306.40039062 183.43310547 C306.97213013 183.78085022 307.54386963 184.12859497 308.13293457 184.48687744 C312.7100041 187.27166256 317.28451045 190.06064752 321.85888672 192.84985352 C325.87150203 195.29627665 329.88517086 197.74095902 333.90039062 200.18310547 C334.75751648 200.7044809 334.75751648 200.7044809 335.63195801 201.23638916 C345.77520007 207.40218955 355.97549716 213.46925928 366.19030762 219.51556396 C376.6911967 225.73247538 387.13793119 232.0321788 397.55688477 238.38525391 C406.52535448 243.84752125 415.54975107 249.21207883 424.58789062 254.55810547 C434.14951086 260.21408506 443.65748891 265.93595931 453.07763672 271.82568359 C461.56981323 277.11323398 470.18171873 282.19494107 478.79150391 287.28759766 C488.28140411 292.9018431 497.73627531 298.56770894 507.15039062 304.30810547 C517.21266975 310.44246398 527.32205867 316.49202452 537.46289062 322.49560547 C549.43565778 329.58518237 561.35251599 336.75888271 573.22314453 344.01855469 C578.67400673 347.35089997 584.12918752 350.67612385 589.58789062 353.99560547 C590.16817017 354.34850647 590.74844971 354.70140747 591.34631348 355.06500244 C601.5846306 361.28715096 611.87899925 367.41218571 622.18893433 373.51473999 C632.69028004 379.73192801 643.13747542 386.03190088 653.55688477 392.38525391 C662.52535448 397.84752125 671.54975107 403.21207883 680.58789062 408.55810547 C690.14951086 414.21408506 699.65748891 419.93595931 709.07763672 425.82568359 C718.23348054 431.52645836 727.52272785 437.00213698 736.81591797 442.47509766 C743.66857237 446.51654758 750.47839999 450.60971047 757.21679688 454.83935547 C758.50302026 455.64135962 759.78939429 456.44312224 761.07592773 457.24462891 C762.91101244 458.38810359 764.74165354 459.53644242 766.56106567 460.70471191 C768.21948185 461.76955307 769.89170153 462.81280342 771.56445312 463.85498047 C772.50240723 464.45149414 773.44036133 465.04800781 774.40673828 465.66259766 C777.87803046 467.11190384 779.56428698 466.86164015 783.15039062 465.80810547 C785.9599742 464.45656693 785.9599742 464.45656693 788.73632812 462.65966797 C789.81527344 461.99386719 790.89421875 461.32806641 792.00585938 460.64208984 C792.8631665 460.10394653 792.8631665 460.10394653 793.73779297 459.55493164 C796.20264705 458.0080859 798.68065425 456.48290632 801.15826416 454.956604 C802.47215492 454.14718094 803.78541774 453.33673777 805.0980835 452.52532959 C811.72847965 448.43263923 818.42745159 444.45915631 825.13665771 440.49743652 C835.93000262 434.12277769 846.69082157 427.69755852 857.40039062 421.18310547 C857.97213013 420.83536072 858.54386963 420.48761597 859.13293457 420.1293335 C863.14017 417.69124739 867.14551303 415.25006213 871.15039062 412.80810547 C875.73239314 410.0142494 880.31528616 407.22186854 884.90039062 404.43310547 C885.47180786 404.08552185 886.0432251 403.73793823 886.63195801 403.37982178 C896.77520007 397.21402139 906.97549716 391.14695166 917.19030762 385.10064697 C927.6911967 378.88373556 938.13793119 372.58403214 948.55688477 366.23095703 C957.52535448 360.76868969 966.54975107 355.40413211 975.58789062 350.05810547 C984.32714843 344.88857744 993.04033028 339.69134175 1001.65039062 334.30810547 C1010.9430579 328.49808538 1020.35929648 322.90772963 1029.79150391 317.32861328 C1039.28140447 311.71436763 1048.73626054 306.04847806 1058.15039062 300.30810547 C1068.10840618 294.23613174 1078.11364929 288.24900828 1088.15039062 282.30810547 C1098.26614828 276.31909439 1108.35679913 270.29245543 1118.40039062 264.18310547 C1118.97213013 263.83536072 1119.54386963 263.48761597 1120.13293457 263.1293335 C1124.14017 260.69124739 1128.14551303 258.25006213 1132.15039062 255.80810547 C1136.73239314 253.0142494 1141.31528616 250.22186854 1145.90039062 247.43310547 C1146.47180786 247.08552185 1147.0432251 246.73793823 1147.63195801 246.37982178 C1157.77520007 240.21402139 1167.97549716 234.14695166 1178.19030762 228.10064697 C1188.6911967 221.88373556 1199.13793119 215.58403214 1209.55688477 209.23095703 C1218.52535448 203.76868969 1227.54975107 198.40413211 1236.58789062 193.05810547 C1245.32714843 187.88857744 1254.04033028 182.69134175 1262.65039062 177.30810547 C1271.9430579 171.49808538 1281.35929648 165.90772963 1290.79150391 160.32861328 C1300.28140411 154.71436784 1309.73627531 149.04850199 1319.15039062 143.30810547 C1329.21266975 137.17374696 1339.32205867 131.12418642 1349.46289062 125.12060547 C1361.43565778 118.03102857 1373.35251599 110.85732822 1385.22314453 103.59765625 C1390.67400673 100.26531097 1396.12918752 96.94008709 1401.58789062 93.62060547 C1402.16817017 93.26770447 1402.74844971 92.91480347 1403.34631348 92.5512085 C1413.5846306 86.32905998 1423.87899925 80.20402522 1434.18893433 74.10147095 C1444.69028004 67.88428293 1455.13747542 61.58431006 1465.55688477 55.23095703 C1474.52535941 49.76868669 1483.54993979 44.40445779 1492.58789062 39.05810547 C1501.40577425 33.84049819 1510.20182815 28.59841231 1518.90039062 23.18310547 C1519.69429199 22.6902002 1520.48819336 22.19729492 1521.30615234 21.68945312 C1525.10413295 19.32981479 1528.89938051 16.96596623 1532.68798828 14.59130859 C1535.88646327 12.58805185 1539.0932069 10.59855745 1542.30456543 8.61602783 C1543.5680779 7.83280852 1544.82879519 7.04506031 1546.08654785 6.25262451 C1547.84176227 5.14744824 1549.60599052 4.05827778 1551.37304688 2.97216797 C1552.39148682 2.33746582 1553.40992676 1.70276367 1554.45922852 1.04882812 C1557.15039062 -0.19189453 1557.15039062 -0.19189453 1559.15209961 -0.09082031 C1561.84714668 1.12153929 1564.35341469 2.52549719 1566.90039062 4.02685547 C1567.74238762 4.52087357 1567.74238762 4.52087357 1568.60139465 5.02487183 C1570.45415502 6.11412396 1572.30233311 7.21089612 1574.15039062 8.30810547 C1575.458445 9.07997715 1576.76663405 9.85162063 1578.07495117 10.62304688 C1587.90438215 16.42996811 1597.66827947 22.34250679 1607.4140625 28.28857422 C1616.28558025 33.69771485 1625.20830136 39.01657819 1634.15039062 44.30810547 C1644.7618306 50.58833574 1655.33138617 56.93103247 1665.859375 63.35009766 C1675.24881773 69.07262575 1684.68783051 74.707407 1694.15039062 80.30810547 C1705.59739597 87.08378084 1717.00725206 93.91599368 1728.35449219 100.85766602 C1733.65102631 104.09388071 1738.95956344 107.29528312 1744.33789062 110.39404297 C1745.2830957 110.94326416 1746.22830078 111.49248535 1747.20214844 112.05834961 C1748.94951522 113.0700579 1750.70373462 114.07005915 1752.46582031 115.0559082 C1753.22282227 115.49620361 1753.97982422 115.93649902 1754.75976562 116.39013672 C1755.74928223 116.95051636 1755.74928223 116.95051636 1756.75878906 117.5222168 C1757.21801758 117.94656006 1757.67724609 118.37090332 1758.15039062 118.80810547 C1758.15039062 120.12810547 1758.15039062 121.44810547 1758.15039062 122.80810547 C1755.85327148 124.60058594 1755.85327148 124.60058594 1752.61523438 126.42529297 C1752.03439087 126.75868683 1751.45354736 127.09208069 1750.85510254 127.43557739 C1749.59844667 128.15469059 1748.33787552 128.86699497 1747.07394409 129.57324219 C1744.38903412 131.0736464 1741.72300278 132.60624526 1739.05519104 134.13677979 C1737.69750388 134.91502719 1736.33880156 135.69150615 1734.97911072 136.46624756 C1729.11682068 139.80842059 1723.3386623 143.27746393 1717.58789062 146.80810547 C1716.67056152 147.36908936 1715.75323242 147.93007324 1714.80810547 148.50805664 C1712.91361444 149.6667482 1711.01957745 150.82618241 1709.12597656 151.98632812 C1703.66078642 155.33234461 1698.18837545 158.66647106 1692.71289062 161.99560547 C1692.132883 162.3483252 1691.55287537 162.70104492 1690.95529175 163.06445312 C1680.71670592 169.28679615 1670.42206662 175.41201725 1660.11184692 181.51473999 C1650.75518968 187.05422978 1641.43429673 192.64757529 1632.15039062 198.30810547 C1622.19218205 204.3797675 1612.18713679 210.36719979 1602.15039062 216.30810547 C1592.03463297 222.29711654 1581.94398212 228.32375551 1571.90039062 234.43310547 C1571.32865112 234.78085022 1570.75691162 235.12859497 1570.16784668 235.48687744 C1566.16061125 237.92496354 1562.15526822 240.36614881 1558.15039062 242.80810547 C1553.56838811 245.60196154 1548.98549509 248.3943424 1544.40039062 251.18310547 C1543.82897339 251.53068909 1543.25755615 251.87827271 1542.66882324 252.23638916 C1532.52558118 258.40218955 1522.32528409 264.46925928 1512.11047363 270.51556396 C1502.75427328 276.05477767 1493.43384099 281.64785316 1484.15039062 287.30810547 C1474.19218205 293.3797675 1464.18713679 299.36719979 1454.15039062 305.30810547 C1444.03463297 311.29711654 1433.94398212 317.32375551 1423.90039062 323.43310547 C1423.32865112 323.78085022 1422.75691162 324.12859497 1422.16784668 324.48687744 C1418.16061125 326.92496354 1414.15526822 329.36614881 1410.15039062 331.80810547 C1405.56838811 334.60196154 1400.98549509 337.3943424 1396.40039062 340.18310547 C1395.82897339 340.53068909 1395.25755615 340.87827271 1394.66882324 341.23638916 C1384.52558118 347.40218955 1374.32528409 353.46925928 1364.11047363 359.51556396 C1354.75427328 365.05477767 1345.43384099 370.64785316 1336.15039062 376.30810547 C1326.19218205 382.3797675 1316.18713679 388.36719979 1306.15039062 394.30810547 C1296.03463297 400.29711654 1285.94398212 406.32375551 1275.90039062 412.43310547 C1275.32865112 412.78085022 1274.75691162 413.12859497 1274.16784668 413.48687744 C1270.16061125 415.92496354 1266.15526822 418.36614881 1262.15039062 420.80810547 C1257.56838811 423.60196154 1252.98549509 426.3943424 1248.40039062 429.18310547 C1247.82897339 429.53068909 1247.25755615 429.87827271 1246.66882324 430.23638916 C1236.52558118 436.40218955 1226.32528409 442.46925928 1216.11047363 448.51556396 C1206.75427328 454.05477767 1197.43384099 459.64785316 1188.15039062 465.30810547 C1178.1921858 471.37976521 1168.18729192 477.36746604 1158.15039062 483.30810547 C1145.53967724 490.77259924 1132.99471831 498.33877075 1120.47851562 505.96044922 C1114.26196764 509.74512075 1108.02323348 513.49157169 1101.77734375 517.22753906 C1095.97459484 520.70287599 1090.19305107 524.21208389 1084.41601562 527.72998047 C1072.36105389 535.07071136 1060.2587265 542.32518535 1048.1126709 549.51419067 C1038.75574459 555.05387113 1029.43457724 560.64740426 1020.15039062 566.30810547 C1010.19218205 572.3797675 1000.18713679 578.36719979 990.15039062 584.30810547 C980.03463297 590.29711654 969.94398212 596.32375551 959.90039062 602.43310547 C959.04278137 602.9547226 959.04278137 602.9547226 958.16784668 603.48687744 C954.16061125 605.92496354 950.15526822 608.36614881 946.15039062 610.80810547 C941.56838811 613.60196154 936.98549509 616.3943424 932.40039062 619.18310547 C931.82897339 619.53068909 931.25755615 619.87827271 930.66882324 620.23638916 C920.52558118 626.40218955 910.32528409 632.46925928 900.11047363 638.51556396 C890.75427328 644.05477767 881.43384099 649.64785316 872.15039062 655.30810547 C862.19218313 661.37976684 852.18718432 667.36728106 842.15039062 673.30810547 C832.42215302 679.06730181 822.71455653 684.85744828 813.05325317 690.72836304 C811.30145879 691.79227359 809.54818133 692.85370441 807.79467773 693.91479492 C802.68596709 697.01403235 797.60334453 700.14006675 792.58398438 703.38232422 C791.75044434 703.9140625 790.9169043 704.44580078 790.05810547 704.99365234 C788.54958541 705.95975847 787.05026547 706.94046578 785.56298828 707.93896484 C783.59179687 709.19482422 783.59179687 709.19482422 780.15039062 710.80810547 C775.97875748 709.60726099 772.3476423 707.2758494 768.64648438 705.05419922 C768.0198439 704.68178604 767.39320343 704.30937286 766.74757385 703.92567444 C764.69215022 702.70262795 762.63997373 701.47424725 760.58789062 700.24560547 C759.14203927 699.38343813 757.69607415 698.52146157 756.25 697.65966797 C746.61877084 691.91312935 737.02414285 686.10760432 727.44772339 680.27023315 C718.05620318 674.54627461 708.61511869 668.9100871 699.15039062 663.30810547 C686.53967724 655.8436117 673.99471831 648.27744019 661.47851562 640.65576172 C656.0492964 637.35042064 650.60524877 634.07091877 645.15039062 630.80810547 C638.55459637 626.86284335 631.98038381 622.88356935 625.41601562 618.88623047 C613.36105389 611.54549958 601.2587265 604.29102559 589.1126709 597.10202026 C579.18148155 591.22235276 569.29535163 585.27420455 559.44140625 579.26611328 C550.05195988 573.54358297 540.61280468 567.90905506 531.15039062 562.30810547 C521.03463297 556.31909439 510.94398212 550.29245543 500.90039062 544.18310547 C500.32865112 543.83536072 499.75691162 543.48761597 499.16784668 543.1293335 C494.59077715 540.34454837 490.0162708 537.55556342 485.44189453 534.76635742 C481.42927922 532.31993429 477.41561039 529.87525192 473.40039062 527.43310547 C472.82897339 527.08552185 472.25755615 526.73793823 471.66882324 526.37982178 C461.52558118 520.21402139 451.32528409 514.14695166 441.11047363 508.10064697 C431.18000926 502.22144791 421.29461534 496.27375562 411.44140625 490.26611328 C402.05195988 484.54358297 392.61280468 478.90905506 383.15039062 473.30810547 C373.03463297 467.31909439 362.94398212 461.29245543 352.90039062 455.18310547 C352.32865112 454.83536072 351.75691162 454.48761597 351.16784668 454.1293335 C346.59077715 451.34454837 342.0162708 448.55556342 337.44189453 445.76635742 C333.42927922 443.31993429 329.41561039 440.87525192 325.40039062 438.43310547 C324.82897339 438.08552185 324.25755615 437.73793823 323.66882324 437.37982178 C313.52558118 431.21402139 303.32528409 425.14695166 293.11047363 419.10064697 C283.18000926 413.22144791 273.29461534 407.27375562 263.44140625 401.26611328 C254.05195988 395.54358297 244.61280468 389.90905506 235.15039062 384.30810547 C225.03463297 378.31909439 214.94398212 372.29245543 204.90039062 366.18310547 C204.04278137 365.66148834 204.04278137 365.66148834 203.16784668 365.1293335 C198.59077715 362.34454837 194.0162708 359.55556342 189.44189453 356.76635742 C185.42927922 354.31993429 181.41561039 351.87525192 177.40039062 349.43310547 C176.82897339 349.08552185 176.25755615 348.73793823 175.66882324 348.37982178 C165.52558118 342.21402139 155.32528409 336.14695166 145.11047363 330.10064697 C135.18000926 324.22144791 125.29461534 318.27375562 115.44140625 312.26611328 C106.05195988 306.54358297 96.61280468 300.90905506 87.15039062 295.30810547 C77.03463297 289.31909439 66.94398212 283.29245543 56.90039062 277.18310547 C56.04278137 276.66148834 56.04278137 276.66148834 55.16784668 276.1293335 C50.59077715 273.34454837 46.0162708 270.55556342 41.44189453 267.76635742 C37.42927922 265.31993429 33.41561039 262.87525192 29.40039062 260.43310547 C28.82897339 260.08552185 28.25755615 259.73793823 27.66882324 259.37982178 C17.52558118 253.21402139 7.32528409 247.14695166 -2.88952637 241.10064697 C-12.81999074 235.22144791 -22.70538466 229.27375562 -32.55859375 223.26611328 C-41.94803648 217.54358518 -51.38704926 211.90880394 -60.84960938 206.30810547 C-73.46032276 198.8436117 -86.00528169 191.27744019 -98.52148438 183.65576172 C-103.9507036 180.35042064 -109.39475123 177.07091877 -114.84960938 173.80810547 C-122.03198192 169.51198263 -129.18714918 165.17261751 -136.33532715 160.81985474 C-137.20864685 160.28810135 -137.20864685 160.28810135 -138.09960938 159.74560547 C-138.68085571 159.39166718 -139.26210205 159.03772888 -139.86096191 158.67306519 C-150.41425096 152.25083098 -161.03131814 145.93967527 -171.66369629 139.6494751 C-181.4802589 133.83946238 -191.23989084 127.95642868 -200.84960938 121.80810547 C-199.53143238 117.85357448 -197.17616297 116.92166459 -193.73632812 114.95654297 C-193.10402786 114.58554474 -192.4717276 114.21454651 -191.82026672 113.83230591 C-190.44974968 113.02941663 -189.07685648 112.23057291 -187.7019043 111.43530273 C-184.76620813 109.73718774 -181.84183784 108.02000203 -178.91677856 106.3036499 C-177.41399244 105.42202028 -175.91062922 104.54137365 -174.40670776 103.66168213 C-167.50586325 99.62170164 -160.67251664 95.47823785 -153.84960938 91.30810547 C-143.21822247 84.82177156 -132.52589298 78.44330299 -121.80859375 72.10009766 C-112.45276906 66.56105476 -103.13270926 60.96814408 -93.84960938 55.30810547 C-83.89140188 49.2364441 -73.88640307 43.24892987 -63.84960938 37.30810547 C-54.12135172 31.54889726 -44.41363802 25.75885784 -34.75219727 19.88812256 C-33.00083637 18.82404032 -31.24849676 17.76158363 -29.49609375 16.69921875 C-24.38722935 13.59570994 -19.29570174 10.47127957 -14.24804688 7.26904297 C-13.40999512 6.74181641 -12.57194336 6.21458984 -11.70849609 5.67138672 C-10.19021637 4.71346567 -8.67822657 3.74546334 -7.17431641 2.76513672 C-2.38510403 -0.2474514 -2.38510403 -0.2474514 0 0 Z " fill="#F71A3C" transform="translate(220.849609375,825.19189453125)"/>
<path d="M0 0 C2.69360352 1.40429688 2.69360352 1.40429688 5.62890625 3.21875 C7.2826123 4.23267822 7.2826123 4.23267822 8.96972656 5.26708984 C10.1673322 6.0113699 11.36492293 6.75567397 12.5625 7.5 C13.81818763 8.27245606 15.0743819 9.04408908 16.33105469 9.81494141 C18.93840805 11.41532205 21.54355258 13.01920567 24.14697266 14.62597656 C29.9987543 18.23509679 35.87354911 21.80620612 41.75 25.375 C42.31897003 25.72095215 42.88794006 26.0669043 43.47415161 26.42333984 C53.61981108 32.59089234 63.82254488 38.65963752 74.03991699 44.7074585 C84.54080608 50.92436991 94.98754057 57.22407333 105.40649414 63.57714844 C114.37496386 69.03941578 123.39936044 74.40397336 132.4375 79.75 C141.99912023 85.40597959 151.50709828 91.12785385 160.92724609 97.01757812 C169.4194226 102.30512851 178.03132811 107.38683561 186.64111328 112.47949219 C196.13101349 118.09373763 205.58588469 123.75960347 215 129.5 C225.06227913 135.63435851 235.17166804 141.68391905 245.3125 147.6875 C257.28526715 154.7770769 269.20212537 161.95077725 281.07275391 169.21044922 C286.5236161 172.5427945 291.9787969 175.86801838 297.4375 179.1875 C298.01777954 179.540401 298.59805908 179.893302 299.19592285 180.25689697 C309.43423998 186.47904549 319.72860862 192.60408025 330.0385437 198.70663452 C340.53988942 204.92382254 350.98708479 211.22379541 361.40649414 217.57714844 C370.37496386 223.03941578 379.39936044 228.40397336 388.4375 233.75 C397.99912023 239.40597959 407.50709828 245.12785385 416.92724609 251.01757812 C425.4194226 256.30512851 434.03132811 261.38683561 442.64111328 266.47949219 C452.13101385 272.09373784 461.58586991 277.75962741 471 283.5 C480.95801555 289.57197373 490.96325866 295.55909719 501 301.5 C511.11575766 307.48901107 521.2064085 313.51565004 531.25 319.625 C531.8217395 319.97274475 532.393479 320.3204895 532.98254395 320.67877197 C537.55961348 323.4635571 542.13411982 326.25254205 546.70849609 329.04174805 C550.72111141 331.48817118 554.73478024 333.93285355 558.75 336.375 C559.32141724 336.72258362 559.89283447 337.07016724 560.48156738 337.42828369 C570.62480945 343.59408408 580.82510653 349.66115381 591.03991699 355.7074585 C601.54080608 361.92436991 611.98754057 368.22407333 622.40649414 374.57714844 C631.37496386 380.03941578 640.39936044 385.40397336 649.4375 390.75 C658.99912023 396.40597959 668.50709828 402.12785385 677.92724609 408.01757812 C685.73618744 412.87972045 693.64568065 417.56658468 701.5625 422.25 C711.24791405 427.98060788 720.91738685 433.73393545 730.53289795 439.58123779 C732.23797022 440.61768754 733.94442018 441.65186972 735.65087891 442.68603516 C741.06254106 445.97127082 746.45798051 449.27753642 751.82156372 452.64053345 C754.40000744 454.25511923 756.98511109 455.858857 759.57092285 457.46160889 C760.80422927 458.2302981 762.03421471 459.00434435 763.26062012 459.78399658 C764.95580686 460.86136452 766.6632126 461.91943349 768.37109375 462.9765625 C769.33974365 463.58580566 770.30839355 464.19504883 771.30639648 464.82275391 C774.54018978 466.23609128 775.70427793 466.16707485 779 465 C780.98677658 463.99834001 782.93345217 462.9154575 784.84765625 461.78125 C785.40757263 461.4519046 785.96748901 461.1225592 786.54437256 460.78323364 C788.38808237 459.69596863 790.22529353 458.59821261 792.0625 457.5 C793.36585901 456.72789599 794.66949331 455.95625651 795.97338867 455.18505859 C805.78211976 449.37149402 815.53050878 443.45815259 825.26391602 437.51953125 C834.13523321 432.11018204 843.05816189 426.79182119 852 421.5 C862.11588975 415.51121618 872.20641171 409.48434801 882.25 403.375 C882.8217395 403.02725525 883.393479 402.6795105 883.98254395 402.32122803 C887.98977938 399.88314193 891.99512241 397.44195666 896 395 C900.58200252 392.20614393 905.16489554 389.41376307 909.75 386.625 C910.32141724 386.27741638 910.89283447 385.92983276 911.48156738 385.57171631 C921.62480945 379.40591592 931.82510653 373.33884619 942.03991699 367.2925415 C952.54080608 361.07563009 962.98754057 354.77592667 973.40649414 348.42285156 C982.37496386 342.96058422 991.39936044 337.59602664 1000.4375 332.25 C1009.17675781 327.08047197 1017.88993966 321.88323628 1026.5 316.5 C1035.79266727 310.68997991 1045.20890586 305.09962416 1054.64111328 299.52050781 C1064.13101385 293.90626216 1073.58586991 288.24037259 1083 282.5 C1092.95801555 276.42802627 1102.96325866 270.44090281 1113 264.5 C1123.11575766 258.51098893 1133.2064085 252.48434996 1143.25 246.375 C1143.8217395 246.02725525 1144.393479 245.6795105 1144.98254395 245.32122803 C1148.98977938 242.88314193 1152.99512241 240.44195666 1157 238 C1161.58200252 235.20614393 1166.16489554 232.41376307 1170.75 229.625 C1171.32141724 229.27741638 1171.89283447 228.92983276 1172.48156738 228.57171631 C1182.62480945 222.40591592 1192.82510653 216.33884619 1203.03991699 210.2925415 C1213.54080608 204.07563009 1223.98754057 197.77592667 1234.40649414 191.42285156 C1243.37496386 185.96058422 1252.39936044 180.59602664 1261.4375 175.25 C1270.17675781 170.08047197 1278.88993966 164.88323628 1287.5 159.5 C1296.79266727 153.68997991 1306.20890586 148.09962416 1315.64111328 142.52050781 C1325.13101349 136.90626237 1334.58588469 131.24039653 1344 125.5 C1354.06227913 119.36564149 1364.17166804 113.31608095 1374.3125 107.3125 C1386.28526715 100.2229231 1398.20212537 93.04922275 1410.07275391 85.78955078 C1415.5236161 82.4572055 1420.9787969 79.13198162 1426.4375 75.8125 C1427.01777954 75.459599 1427.59805908 75.106698 1428.19592285 74.74310303 C1438.43423998 68.52095451 1448.72860862 62.39591975 1459.0385437 56.29336548 C1469.53988942 50.07617746 1479.98708479 43.77620459 1490.40649414 37.42285156 C1500.72105284 31.14074559 1511.10709439 24.98145992 1521.51098633 18.84863281 C1527.5674539 15.27206422 1533.58747224 11.66253328 1539.515625 7.875 C1540.4857251 7.2572168 1541.4558252 6.63943359 1542.45532227 6.00292969 C1544.21959083 4.87099793 1545.97597089 3.7266309 1547.72241211 2.56738281 C1548.4881958 2.07592773 1549.25397949 1.58447266 1550.04296875 1.078125 C1550.69289795 0.64918945 1551.34282715 0.22025391 1552.01245117 -0.22167969 C1554.76368882 -1.29905908 1556.19990243 -0.89175417 1559 0 C1561.63012695 1.37255859 1561.63012695 1.37255859 1564.48828125 3.1484375 C1565.57044922 3.81423828 1566.65261719 4.48003906 1567.76757812 5.16601562 C1568.3432251 5.52477783 1568.91887207 5.88354004 1569.51196289 6.25317383 C1572.64043857 8.20237325 1575.78434019 10.12648151 1578.92578125 12.0546875 C1579.91386276 12.66259125 1579.91386276 12.66259125 1580.92190552 13.28277588 C1587.56696332 17.36485337 1594.27201063 21.34308126 1600.98617554 25.31011963 C1612.27349898 31.97930299 1623.5152461 38.71701005 1634.70898438 45.54199219 C1644.09843074 51.2645225 1653.53758594 56.89905041 1663 62.5 C1676.56853653 70.53322087 1690.0652619 78.67832872 1703.52929688 86.88525391 C1708.91972395 90.17055847 1714.3148486 93.44812684 1719.7104187 96.72497559 C1721.47563805 97.7976953 1723.23997226 98.87185804 1725.00415039 99.94628906 C1730.37035634 103.2115337 1735.74864351 106.45236276 1741.16796875 109.62890625 C1742.575625 110.45781372 1742.575625 110.45781372 1744.01171875 111.3034668 C1745.74550015 112.32174699 1747.48355117 113.33280597 1749.2265625 114.33520508 C1750.35771484 115.00072388 1750.35771484 115.00072388 1751.51171875 115.6796875 C1752.49338013 116.24792236 1752.49338013 116.24792236 1753.49487305 116.82763672 C1755 118 1755 118 1756 121 C1754.32164062 122.00353516 1754.32164062 122.00353516 1752.609375 123.02734375 C1743.21478187 128.65150151 1733.84120462 134.30843555 1724.48937988 140.00344849 C1713.02624267 146.98297776 1701.51163772 153.87025348 1689.96228027 160.70608521 C1680.60535397 166.24576566 1671.28418662 171.83929879 1662 177.5 C1652.04179143 183.57166203 1642.03674617 189.55909433 1632 195.5 C1621.88424234 201.48901107 1611.7935915 207.51565004 1601.75 213.625 C1601.1782605 213.97274475 1600.606521 214.3204895 1600.01745605 214.67877197 C1596.01022062 217.11685807 1592.00487759 219.55804334 1588 222 C1583.41799748 224.79385607 1578.83510446 227.58623693 1574.25 230.375 C1573.67858276 230.72258362 1573.10716553 231.07016724 1572.51843262 231.42828369 C1562.37519055 237.59408408 1552.17489347 243.66115381 1541.96008301 249.7074585 C1532.60388266 255.2466722 1523.28345036 260.83974769 1514 266.5 C1504.04179143 272.57166203 1494.03674617 278.55909433 1484 284.5 C1473.88424234 290.48901107 1463.7935915 296.51565004 1453.75 302.625 C1453.1782605 302.97274475 1452.606521 303.3204895 1452.01745605 303.67877197 C1448.01022062 306.11685807 1444.00487759 308.55804334 1440 311 C1435.41799748 313.79385607 1430.83510446 316.58623693 1426.25 319.375 C1425.67858276 319.72258362 1425.10716553 320.07016724 1424.51843262 320.42828369 C1414.37519055 326.59408408 1404.17489347 332.66115381 1393.96008301 338.7074585 C1384.60388266 344.2466722 1375.28345036 349.83974769 1366 355.5 C1356.04179143 361.57166203 1346.03674617 367.55909433 1336 373.5 C1325.88424234 379.48901107 1315.7935915 385.51565004 1305.75 391.625 C1305.1782605 391.97274475 1304.606521 392.3204895 1304.01745605 392.67877197 C1300.01022062 395.11685807 1296.00487759 397.55804334 1292 400 C1287.41799748 402.79385607 1282.83510446 405.58623693 1278.25 408.375 C1277.67858276 408.72258362 1277.10716553 409.07016724 1276.51843262 409.42828369 C1266.37519055 415.59408408 1256.17489347 421.66115381 1245.96008301 427.7074585 C1236.60388266 433.2466722 1227.28345036 438.83974769 1218 444.5 C1208.04179518 450.57165974 1198.03690129 456.55936057 1188 462.5 C1175.38928662 469.96449377 1162.84432768 477.53066528 1150.328125 485.15234375 C1144.11157702 488.93701528 1137.87284285 492.68346622 1131.62695312 496.41943359 C1125.82420421 499.89477052 1120.04266044 503.40397842 1114.265625 506.921875 C1102.21066327 514.26260589 1090.10833588 521.51707988 1077.96228027 528.70608521 C1068.60535397 534.24576566 1059.28418662 539.83929879 1050 545.5 C1040.04179143 551.57166203 1030.03674617 557.55909433 1020 563.5 C1009.88424234 569.48901107 999.7935915 575.51565004 989.75 581.625 C988.89239075 582.14661713 988.89239075 582.14661713 988.01745605 582.67877197 C984.01022062 585.11685807 980.00487759 587.55804334 976 590 C971.41799748 592.79385607 966.83510446 595.58623693 962.25 598.375 C961.67858276 598.72258362 961.10716553 599.07016724 960.51843262 599.42828369 C950.37519055 605.59408408 940.17489347 611.66115381 929.96008301 617.7074585 C920.60388266 623.2466722 911.28345036 628.83974769 902 634.5 C892.04179143 640.57166203 882.03674617 646.55909433 872 652.5 C859.00224111 660.19529328 846.06772495 667.98860439 833.16999817 675.85023499 C829.06262726 678.35380288 824.95210826 680.85213541 820.83984375 683.34765625 C820.24666855 683.70782333 819.65349335 684.06799042 819.04234314 684.43907166 C816.09620818 686.22757171 813.1486091 688.01357087 810.19799805 689.79467773 C804.52840979 693.22120986 798.89119002 696.68911887 793.3046875 700.25 C791.72361206 701.24640503 791.72361206 701.24640503 790.1105957 702.26293945 C788.12817998 703.51463214 786.15474501 704.78070248 784.19213867 706.06323242 C783.31533447 706.61342041 782.43853027 707.1636084 781.53515625 707.73046875 C780.775979 708.21926514 780.01680176 708.70806152 779.23461914 709.21166992 C777 710 777 710 774.45898438 709.28076172 C772.30678676 708.15978985 770.19581228 707.0351567 768.12109375 705.77734375 C767.38020508 705.33060303 766.63931641 704.8838623 765.87597656 704.42358398 C765.0712793 703.93317627 764.26658203 703.44276855 763.4375 702.9375 C762.56963867 702.41293213 761.70177734 701.88836426 760.80761719 701.34790039 C755.72621085 698.27340995 750.65530642 695.18163233 745.58203125 692.09375 C743.88620754 691.06194254 742.19038174 690.03013848 740.49441528 688.99856567 C739.32381554 688.28653155 738.15330478 687.57435112 736.98287964 686.86203003 C726.68649886 680.59803409 716.33375562 674.43258186 705.96228027 668.29391479 C696.03109092 662.41424729 686.144961 656.46609908 676.29101562 650.45800781 C666.90156926 644.7354775 657.46241406 639.10094959 648 633.5 C637.88424234 627.51098893 627.7935915 621.48434996 617.75 615.375 C617.1782605 615.02725525 616.606521 614.6795105 616.01745605 614.32122803 C611.44038652 611.5364429 606.86588018 608.74745795 602.29150391 605.95825195 C598.27888859 603.51182882 594.26521976 601.06714645 590.25 598.625 C589.67858276 598.27741638 589.10716553 597.92983276 588.51843262 597.57171631 C578.37519055 591.40591592 568.17489347 585.33884619 557.96008301 579.2925415 C548.02961863 573.41334244 538.14422471 567.46565015 528.29101562 561.45800781 C518.90156926 555.7354775 509.46241406 550.10094959 500 544.5 C489.88424234 538.51098893 479.7935915 532.48434996 469.75 526.375 C469.1782605 526.02725525 468.606521 525.6795105 468.01745605 525.32122803 C463.44038652 522.5364429 458.86588018 519.74745795 454.29150391 516.95825195 C450.27888859 514.51182882 446.26521976 512.06714645 442.25 509.625 C441.67858276 509.27741638 441.10716553 508.92983276 440.51843262 508.57171631 C430.37519055 502.40591592 420.17489347 496.33884619 409.96008301 490.2925415 C400.02961863 484.41334244 390.14422471 478.46565015 380.29101562 472.45800781 C370.90156926 466.7354775 361.46241406 461.10094959 352 455.5 C341.88424234 449.51098893 331.7935915 443.48434996 321.75 437.375 C321.1782605 437.02725525 320.606521 436.6795105 320.01745605 436.32122803 C315.44038652 433.5364429 310.86588018 430.74745795 306.29150391 427.95825195 C302.27888859 425.51182882 298.26521976 423.06714645 294.25 420.625 C293.67858276 420.27741638 293.10716553 419.92983276 292.51843262 419.57171631 C282.37519055 413.40591592 272.17489347 407.33884619 261.96008301 401.2925415 C252.02961863 395.41334244 242.14422471 389.46565015 232.29101562 383.45800781 C222.90157289 377.73547972 213.46256011 372.10069847 204 366.5 C191.38928662 359.03550623 178.84432768 351.46933472 166.328125 343.84765625 C160.89890578 340.54231517 155.45485815 337.2628133 150 334 C143.40420575 330.05473788 136.82999319 326.07546389 130.265625 322.078125 C118.21066327 314.73739411 106.10833588 307.48292012 93.96228027 300.29391479 C84.03109092 294.41424729 74.144961 288.46609908 64.29101562 282.45800781 C54.90156926 276.7354775 45.46241406 271.10094959 36 265.5 C25.88424234 259.51098893 15.7935915 253.48434996 5.75 247.375 C5.1782605 247.02725525 4.606521 246.6795105 4.01745605 246.32122803 C-0.55961348 243.5364429 -5.13411982 240.74745795 -9.70849609 237.95825195 C-13.72111141 235.51182882 -17.73478024 233.06714645 -21.75 230.625 C-22.32141724 230.27741638 -22.89283447 229.92983276 -23.48156738 229.57171631 C-33.62480945 223.40591592 -43.82510653 217.33884619 -54.03991699 211.2925415 C-63.97038137 205.41334244 -73.85577529 199.46565015 -83.70898438 193.45800781 C-93.09843074 187.7354775 -102.53758594 182.10094959 -112 176.5 C-125.56853653 168.46677913 -139.0652619 160.32167128 -152.52929688 152.11474609 C-158.51578043 148.46616289 -164.50782711 144.82672916 -170.5 141.1875 C-171.37217163 140.65768021 -171.37217163 140.65768021 -172.26196289 140.11715698 C-182.81787894 133.70558955 -193.39983438 127.33811746 -204 121 C-202.681823 117.04546901 -200.32655359 116.11355912 -196.88671875 114.1484375 C-196.25441849 113.77743927 -195.62211823 113.40644104 -194.97065735 113.02420044 C-193.60014031 112.22131117 -192.2272471 111.42246744 -190.85229492 110.62719727 C-187.91659875 108.92908227 -184.99222847 107.21189656 -182.06716919 105.49554443 C-180.56438306 104.61391481 -179.06101985 103.73326818 -177.55709839 102.85357666 C-170.65625387 98.81359617 -163.82290726 94.67013238 -157 90.5 C-147.04357263 84.42546683 -137.0367 78.44087835 -127 72.5 C-116.88424234 66.51098893 -106.7935915 60.48434996 -96.75 54.375 C-96.1782605 54.02725525 -95.606521 53.6795105 -95.01745605 53.32122803 C-91.01022062 50.88314193 -87.00487759 48.44195666 -83 46 C-78.41799744 43.20614391 -73.8350779 40.41380678 -69.25 37.625 C-68.68190613 37.2794104 -68.11381226 36.9338208 -67.52850342 36.57775879 C-56.49535842 29.87041179 -45.40064324 23.2680373 -34.27905273 16.70849609 C-28.52631681 13.31158398 -22.79247597 9.90270648 -17.15234375 6.3203125 C-16.31590332 5.79163574 -15.47946289 5.26295898 -14.61767578 4.71826172 C-13.14021109 3.7772034 -11.67030458 2.82410733 -10.21044922 1.85595703 C-6.27292364 -0.64992412 -4.44961143 -1.35180148 0 0 Z " fill="#F71A3C" transform="translate(224,1181)"/>
</svg>
