<?xml version="1.0" encoding="UTF-8"?>
<svg version="1.1" xmlns="http://www.w3.org/2000/svg" width="2000" height="2000">
<path d="M0 0 C243.21 0 486.42 0 737 0 C737 243.21 737 486.42 737 737 C493.79 737 250.58 737 0 737 C0 493.79 0 250.58 0 0 Z M349 69 C347.98558838 69.32145996 347.98558838 69.32145996 346.95068359 69.64941406 C322.82095288 77.49286095 302.63870176 91.90211429 287.3125 112.1875 C286.68952026 112.99525879 286.68952026 112.99525879 286.05395508 113.81933594 C277.14306857 126.07549388 272.10396109 140.50668153 267.41113281 154.75292969 C266.81009396 156.54794819 266.20805418 158.3426318 265.60509109 160.13700485 C264.03408018 164.82248693 262.47772943 169.51269526 260.92575264 174.20451164 C259.73032135 177.81434663 258.52773602 181.42177676 257.32495141 185.02916694 C254.29736575 194.11069305 251.28738342 203.19797074 248.28516984 212.28791213 C245.98918672 219.23908344 243.68793062 226.18849147 241.38360596 233.13690186 C240.87252198 234.67808902 240.87252198 234.67808902 240.35111308 236.25041127 C239.656558 238.34476646 238.96198218 240.43911478 238.26738596 242.53345633 C233.66195613 256.41978799 229.05930772 270.30700296 224.47460938 284.20019531 C221.34383167 293.687375 218.20324632 303.17124614 215.05154347 312.6514957 C213.39769489 317.62746375 211.74854273 322.60486679 210.11153412 327.58640289 C193.22644588 378.94424977 193.22644588 378.94424977 179 397 C178.55962402 397.56235352 178.11924805 398.12470703 177.66552734 398.70410156 C167.09522381 412.05025872 154.95867904 422.76238643 140 431 C139.39994141 431.33483398 138.79988281 431.66966797 138.18164062 432.01464844 C124.60526902 439.50627319 110.39446185 444.41897321 95.0625 446.8125 C94.3499707 446.92440674 93.63744141 447.03631348 92.90332031 447.15161133 C83.63488385 448.41356322 74.36966733 448.53151663 65 449 C65 469.79 65 490.58 65 512 C82.47838245 512.27684068 82.47838245 512.27684068 99.6875 510.8125 C100.62843506 510.6786792 101.56937012 510.5448584 102.53881836 510.40698242 C135.64578146 505.41521436 166.41924265 492.3282213 193 472 C193.93070313 471.31164062 194.86140625 470.62328125 195.8203125 469.9140625 C234.35118517 440.10271453 253.60711457 399.09981544 268.43823242 354.04418945 C269.14009806 351.92760708 269.8425334 349.81121354 270.54548645 347.69499207 C272.04279176 343.18384377 273.53641588 338.67150057 275.02712059 334.15816689 C277.38681433 327.01482577 279.75663249 319.87486821 282.12800598 312.73539734 C285.45209861 302.72481619 288.77325137 292.71326523 292.09057617 282.70043945 C292.30006487 282.06813749 292.50955357 281.43583552 292.72539041 280.78437289 C295.06675474 273.71711007 297.4071456 266.64952544 299.746521 259.581604 C300.59784633 257.00955775 301.44918321 254.43751531 302.30053711 251.86547852 C302.51067199 251.23063057 302.72080686 250.59578262 302.93730947 249.94169686 C306.44653739 239.34046834 309.96290035 228.74161812 313.48454744 218.14450806 C315.84080135 211.05276516 318.18871263 203.95833312 320.53030622 196.86173689 C321.98778357 192.45085389 323.45280018 188.04250246 324.91990471 183.63481331 C325.5966623 181.59652283 326.27032719 179.5572024 326.94060898 177.51677322 C327.85842814 174.72429169 328.78742837 171.93576779 329.71916199 169.14790344 C329.9792891 168.34731658 330.23941621 167.54672971 330.50742596 166.72188264 C335.22450622 152.74543067 344.00378477 141.27169185 357 134 C371.11216318 127.84469479 387.43541467 126.3141419 402.109375 131.67578125 C415.50213402 137.81111275 425.88561867 147.21173938 431.1936655 161.1298933 C434.64676104 171.43752263 437.37431395 181.85719069 439.97045898 192.40942383 C440.44368105 194.31357345 440.917452 196.21758674 441.39172363 198.12147522 C442.40447773 202.19154687 443.41359911 206.26249496 444.41985893 210.33417702 C446.01555096 216.78996487 447.62073212 223.24337086 449.22731018 229.69645691 C453.2155528 245.72213269 457.19109875 261.75095461 461.16491699 277.7802124 C464.25652882 290.25017785 467.3515422 302.71927971 470.4562059 315.18600291 C472.04887718 321.58294459 473.63485576 327.98149461 475.21554744 334.38140643 C476.20553559 338.38333361 477.20156525 342.38373999 478.19915009 346.38377953 C478.65551403 348.21875808 479.10947706 350.05433595 479.56066322 351.89059448 C483.36409124 367.36057066 487.63740313 382.76440063 494.375 397.25 C494.7572876 398.08225098 495.1395752 398.91450195 495.53344727 399.77197266 C506.5749567 423.44310696 522.86005298 446.23466086 543 463 C543.83660156 463.73605469 544.67320312 464.47210938 545.53515625 465.23046875 C580.72842334 495.67966408 625.6127569 512 672 512 C672 491.21 672 470.42 672 449 C663.75 448.01 655.5 447.02 647 446 C641.78462265 444.82755083 637.02041289 443.66591579 632 442 C631.36868164 441.79536133 630.73736328 441.59072266 630.08691406 441.37988281 C614.54353251 436.26501697 600.61673072 428.44085069 588 418 C587.48373047 417.57412598 586.96746094 417.14825195 586.43554688 416.70947266 C573.66772887 406.016619 563.90597709 393.22184736 556.0625 378.5625 C555.6382373 377.77818604 555.21397461 376.99387207 554.77685547 376.18579102 C547.39585637 361.73000415 543.67829513 345.57099159 539.84008789 329.89868164 C539.35860572 327.95627497 538.87645339 326.01403432 538.39369202 324.07194519 C537.36502696 319.92841937 536.34069312 315.78385698 535.31978035 311.63841438 C533.7003129 305.06405199 532.06889321 298.49269021 530.43565369 291.92173767 C526.38226557 275.60653714 522.3421705 259.28804941 518.309021 242.96783447 C515.16952781 230.26393711 512.02535957 217.56124089 508.86624521 204.8622064 C507.24675393 198.34997676 505.63703602 191.83543857 504.03497899 185.31889927 C503.03085579 181.24423747 502.01764378 177.17187402 501.00206566 173.10005379 C500.53841657 171.23355015 500.0783531 169.36615092 499.62245941 167.49773788 C491.03304604 132.32746525 475.57147167 101.60771461 444 82 C433.78664255 75.86513093 423.51244814 71.16685467 412 68 C410.40865234 67.52240234 410.40865234 67.52240234 408.78515625 67.03515625 C389.92405662 62.25935856 367.50278938 62.98945235 349 69 Z M65 577 C65 597.79 65 618.58 65 640 C265.31 640 465.62 640 672 640 C672 619.21 672 598.42 672 577 C471.69 577 271.38 577 65 577 Z " fill="#ED160B" transform="translate(1208,23)"/>
<path d="M0 0 C0.8852536 0.00182281 1.7705072 0.00364563 2.68258667 0.00552368 C78.42660871 0.26627942 150.8731925 30.03907125 206.125 81.6875 C208.96258659 84.33591415 211.85250241 86.9174478 214.75 89.5 C218.46180813 92.87292693 221.86464579 96.31274724 225.0859375 100.15234375 C227.32776547 102.76780971 229.69755728 105.24534165 232.0625 107.75 C238.93337677 115.14857734 244.96614785 123.18184653 250.9375 131.3125 C251.34709961 131.87018066 251.75669922 132.42786133 252.17871094 133.00244141 C254.87021871 136.70355638 257.43338184 140.48314079 259.9375 144.3125 C260.40591309 145.02760742 260.87432617 145.74271484 261.35693359 146.47949219 C292.37111594 194.25301405 312.21489322 248.73473312 318.9375 305.3125 C319.02363556 306.02911804 319.10977112 306.74573608 319.19851685 307.48406982 C320.94666598 322.43339952 321.29896549 337.27150985 321.25 352.3125 C321.24726578 354.05997025 321.24726578 354.05997025 321.24447632 355.84274292 C321.19795631 373.52595139 320.66183062 390.81350235 317.9375 408.3125 C317.68806641 409.99811035 317.68806641 409.99811035 317.43359375 411.71777344 C312.01260292 447.62681824 301.27418063 482.42011638 285.9375 515.3125 C285.29989746 516.68051758 285.29989746 516.68051758 284.64941406 518.07617188 C274.54799389 539.49513503 262.24194196 559.454554 247.9375 578.3125 C247.4621582 578.94478516 246.98681641 579.57707031 246.49707031 580.22851562 C240.61830062 588.02025097 234.34907561 595.30801371 227.65625 602.41015625 C225.44165944 604.77429532 223.29576959 607.16694932 221.1875 609.625 C215.98209608 615.62444859 210.32686011 621.12384269 204.296875 626.2890625 C202.50088525 627.82933186 200.72278118 629.39048346 198.953125 630.9609375 C149.02291341 675.01223365 80.66288905 705.18404828 13.4609375 705.515625 C12.50078232 705.52268463 11.54062714 705.52974426 10.55137634 705.53701782 C-29.33497822 705.76372835 -29.33497822 705.76372835 -48.0625 702.3125 C-49.11646973 702.12977539 -50.17043945 701.94705078 -51.25634766 701.75878906 C-78.11217216 697.00091354 -104.63917432 688.48959687 -129.0625 676.3125 C-129.94454102 675.88420898 -130.82658203 675.45591797 -131.73535156 675.01464844 C-212.16354335 635.82306351 -270.73658579 561.82141399 -300.0625 478.3125 C-307.48682122 456.66772311 -312.74372718 434.59543018 -316.3125 412 C-316.46364258 411.04867188 -316.61478516 410.09734375 -316.77050781 409.1171875 C-319.52153245 390.56174366 -320.44204416 372.05161952 -320.375 353.3125 C-320.37317719 352.24633453 -320.37135437 351.18016907 -320.36947632 350.08169556 C-320.12507009 264.77914372 -291.78432024 182.70276366 -238.0625 116.3125 C-237.24265625 115.28511719 -236.4228125 114.25773437 -235.578125 113.19921875 C-228.7311165 104.81510026 -221.12729418 97.16578759 -213.5 89.5 C-212.96928894 88.96402191 -212.43857788 88.42804382 -211.89178467 87.87582397 C-204.95430152 80.88520208 -197.8289271 74.39276032 -190.0625 68.3125 C-189.33281006 67.73411377 -188.60312012 67.15572754 -187.85131836 66.55981445 C-148.26162781 35.3726417 -103.0411097 14.02431849 -53.4375 4.5625 C-52.40238281 4.36358154 -51.36726563 4.16466309 -50.30078125 3.9597168 C-33.62009571 0.94835698 -16.92470362 -0.0732289 0 0 Z M-207.0625 257.3125 C-207.0625 279.15666878 -198.59060261 298.73312483 -183.2890625 314.26953125 C-167.67520643 329.38808373 -146.86418347 336.90479393 -125.30810547 336.73022461 C-103.1700899 336.02388064 -82.90254824 326.06464337 -67.75 310 C-55.02186065 294.74771488 -48.0625 277.13903369 -48.0625 257.3125 C-58.2925 257.3125 -68.5225 257.3125 -79.0625 257.3125 C-79.619375 260.096875 -80.17625 262.88125 -80.75 265.75 C-83.48873576 278.38849975 -88.90526545 288.30190612 -99.5859375 296.171875 C-111.50693766 303.5812351 -124.59304661 306.38741998 -138.51171875 303.62890625 C-150.67707942 300.15925901 -161.17678209 294.09236807 -168.0078125 283.21484375 C-172.81778534 274.28922469 -173.91860048 268.03199759 -176.0625 257.3125 C-186.2925 257.3125 -196.5225 257.3125 -207.0625 257.3125 Z M48.9375 257.3125 C50.35107271 277.10251798 54.9333567 293.0935391 67.9375 308.3125 C68.700625 309.323125 69.46375 310.33375 70.25 311.375 C82.85053333 325.14767596 102.12832104 335.29136268 120.95898438 336.43530273 C144.02023775 337.26649822 165.18980717 331.42083106 182.625 315.6875 C196.39133697 302.76325279 204.86977365 285.88126711 207.9375 267.3125 C207.9375 264.0125 207.9375 260.7125 207.9375 257.3125 C197.7075 257.3125 187.4775 257.3125 176.9375 257.3125 C176.545625 259.74625 176.15375 262.18 175.75 264.6875 C173.29536129 278.24619593 166.94530269 288.62514518 155.5 296.6875 C143.24256747 304.26521223 129.93746876 306.28342544 115.8125 303.25 C102.63118222 299.50150776 92.90059354 291.62973675 86.21875 279.84765625 C82.53681707 272.56236822 81.41668585 265.4480222 79.9375 257.3125 C69.7075 257.3125 59.4775 257.3125 48.9375 257.3125 Z M-79.0625 513.3125 C-79.0625 531.40523876 -73.54450117 548.18265789 -62.0625 562.3125 C-61.39605469 563.14136719 -60.72960937 563.97023438 -60.04296875 564.82421875 C-47.34537536 579.76390971 -30.29525085 588.89262959 -11.0625 592.3125 C11.50081183 593.95937416 32.03388564 590.13270904 50 575.75 C51.6618052 574.2888002 53.30959766 572.81137804 54.9375 571.3125 C55.56785156 570.77367187 56.19820312 570.23484375 56.84765625 569.6796875 C69.54107285 558.17176083 78.10855982 539.13874965 79.9375 522.3125 C79.9375 519.3425 79.9375 516.3725 79.9375 513.3125 C69.7075 513.3125 59.4775 513.3125 48.9375 513.3125 C48.380625 516.90125 48.380625 516.90125 47.8125 520.5625 C45.51639748 533.6003691 39.87234765 544.08653471 29.1875 552 C16.84776606 560.28232519 2.7550949 562.31788041 -11.75 559.62890625 C-17.90634524 557.87928455 -23.01608112 555.49084489 -28.16015625 551.6796875 C-30.01832939 550.24397988 -30.01832939 550.24397988 -32.18359375 549.3828125 C-34.56908742 548.02392422 -34.97851903 546.79927987 -36.0625 544.3125 C-37.00582473 542.92716025 -37.96524288 541.55269005 -38.9375 540.1875 C-44.72659833 531.53209201 -46.30713406 523.84469562 -48.0625 513.3125 C-58.2925 513.3125 -68.5225 513.3125 -79.0625 513.3125 Z " fill="#ED160B" transform="translate(567.0625,1239.6875)"/>
<path d="M0 0 C3.43298874 0.85824719 4.9960207 1.45303654 7.81079102 3.31542969 C8.55434341 3.80352112 9.29789581 4.29161255 10.0639801 4.79449463 C10.86915573 5.33153015 11.67433136 5.86856567 12.50390625 6.421875 C13.35730087 6.98485291 14.2106955 7.54783081 15.08995056 8.12786865 C17.91801771 9.99611455 20.74032003 11.87287494 23.5625 13.75 C25.55189081 15.06734808 27.54147714 16.38440093 29.53125 17.70117188 C43.79770532 27.15470766 57.99350108 36.71197402 72.16653442 46.30480957 C85.71173875 55.47183928 99.32843987 64.52261454 113 73.5 C129.96154683 84.63793901 146.8247624 95.9140693 163.63085938 107.28515625 C164.47462128 107.85601959 165.31838318 108.42688293 166.18771362 109.01504517 C167.82241163 110.12157265 169.45664262 111.22879043 171.09036255 112.33676147 C174.88545851 114.90778533 178.6897399 117.46211646 182.52099609 119.97900391 C183.5744648 120.67277885 183.5744648 120.67277885 184.6492157 121.38056946 C185.9574049 122.24014116 187.26814199 123.09585263 188.5818634 123.94694519 C192.88944751 126.77889502 192.88944751 126.77889502 194 129 C193.54425095 129.29891647 193.08850189 129.59783295 192.61894226 129.9058075 C171.16302305 143.98178536 149.74918409 158.1133651 128.5 172.5 C114.06734152 182.27109866 99.56894622 191.9333052 85 201.5 C67.27399279 213.14012423 49.65952466 224.93758317 32.09844971 236.82492065 C28.87430846 239.00658718 25.64832348 241.18551466 22.42175293 243.36358643 C20.75547414 244.48951517 19.09024976 245.61700541 17.42590332 246.74578857 C14.91447253 248.448196 12.39910131 250.14462794 9.8828125 251.83984375 C9.11750214 252.36050919 8.35219177 252.88117462 7.56369019 253.4176178 C6.50953415 254.12536598 6.50953415 254.12536598 5.43408203 254.84741211 C4.50838913 255.47322426 4.50838913 255.47322426 3.56399536 256.11167908 C2 257 2 257 0 257 C0 225.32 0 193.64 0 161 C-71.31773954 161.06886954 -71.31773954 161.06886954 -142.63545227 161.15898132 C-143.3405466 161.15997689 -144.04564093 161.16097246 -144.77210175 161.16199819 C-160.10033129 161.18366306 -175.42855981 161.20598621 -190.7567874 161.22898628 C-198.27511395 161.24026356 -205.7934407 161.25139557 -213.31176758 161.26245117 C-214.43393837 161.26410502 -214.43393837 161.26410502 -215.57877928 161.26579228 C-239.77248069 161.30138085 -263.96618074 161.32739994 -288.15989885 161.34838969 C-313.04819347 161.37003306 -337.93645737 161.40146408 -362.82472378 161.44499113 C-366.35015253 161.45115224 -369.87558146 161.45720291 -373.40101051 161.46318626 C-374.09477994 161.46436715 -374.78854936 161.46554803 -375.5033421 161.46676469 C-386.61470011 161.48539482 -397.72604319 161.49388446 -408.8374149 161.49846124 C-420.04225902 161.50329732 -431.24704726 161.51933962 -442.45186504 161.54566566 C-448.50900495 161.55957972 -454.56605214 161.56888969 -460.623209 161.56500816 C-557.29972463 161.5160187 -648.78590299 187.45398339 -722 253 C-722.95519531 253.84433594 -723.91039062 254.68867188 -724.89453125 255.55859375 C-737.80519803 267.16229836 -750.31165911 279.30293323 -761 293 C-762.58011808 294.85690747 -764.16364866 296.71091476 -765.75 298.5625 C-807.32951151 348.56073795 -833.14013137 411.04461181 -843 475 C-843.16371094 476.01416992 -843.32742188 477.02833984 -843.49609375 478.07324219 C-848.69065444 511.52664232 -848.57641191 548.61110946 -843 582 C-842.79600586 583.22944336 -842.59201172 584.45888672 -842.38183594 585.72558594 C-831.28184985 650.62899802 -805.06245459 711.2626311 -762.71582031 761.91943359 C-761.48395278 763.41316938 -760.27198218 764.92339817 -759.07324219 766.44384766 C-753.28375183 773.72513295 -746.98571249 780.32264149 -740.38964844 786.87109375 C-738.62719762 788.62281575 -736.87571432 790.38499428 -735.125 792.1484375 C-728.38901762 798.8925865 -721.48014128 805.08187932 -714 811 C-712.75165093 812.04762197 -711.50760958 813.10041608 -710.26953125 814.16015625 C-693.9279947 827.96492843 -675.71260249 839.66811217 -657 850 C-656.16774902 850.46325684 -655.33549805 850.92651367 -654.47802734 851.40380859 C-590.77244429 886.58727027 -522.64202049 896.18077234 -450.99966783 896.13860132 C-447.36532797 896.13760678 -443.73099457 896.14249488 -440.09665751 896.14658034 C-433.75679521 896.15294713 -427.41693943 896.15579318 -421.07707405 896.15620613 C-411.64900786 896.1568568 -402.22095154 896.16328827 -392.79288874 896.17095293 C-377.88969821 896.1829752 -362.98650813 896.19166503 -348.08331417 896.19799107 C-324.42642578 896.20806685 -300.76955157 896.22734152 -277.11267176 896.24953346 C-267.98978115 896.25806001 -258.86689029 896.2663277 -249.74399948 896.27463722 C-248.7307274 896.27556223 -247.71745531 896.27648724 -246.67347801 896.27744028 C-222.60051672 896.29938959 -198.52755387 896.31920158 -174.45458984 896.33789062 C-173.40240208 896.3387103 -172.35021431 896.33952998 -171.26614207 896.3403745 C-146.71012398 896.35946497 -122.15410598 896.37642934 -97.5980835 896.38873291 C-96.54124333 896.38926258 -95.48440315 896.38979225 -94.39553752 896.39033796 C-85.87549314 896.39459011 -77.35544872 896.39876611 -68.8354043 896.40292276 C-33.67065508 896.42013728 1.4940745 896.44736499 36.65880685 896.48608314 C41.62845666 896.49154419 46.59810661 896.49687725 51.56775665 896.50212479 C53.03462728 896.50367636 53.03462728 896.50367636 54.53113166 896.50525927 C70.23091887 896.52154509 85.93069227 896.52711053 101.63048713 896.52842245 C117.41469144 896.52993014 133.19885838 896.54213373 148.9830462 896.56517886 C158.3454185 896.57851115 167.70770901 896.58360542 177.07008865 896.5766325 C183.33919638 896.57278773 189.60823216 896.5799315 195.87732113 896.59564828 C199.43864673 896.60426987 202.99980578 896.60844764 206.56113335 896.59907441 C227.37772586 896.55819427 247.70355607 897.80713556 268 902.6875 C269.07266113 902.94168701 270.14532227 903.19587402 271.25048828 903.45776367 C314.01059475 913.9638319 353.87568773 935.82058068 385.41772461 966.51489258 C386.96794033 967.96990912 388.56459968 969.32727674 390.2109375 970.671875 C392.50597038 972.58761673 394.40076174 974.41020972 396.3125 976.6875 C398.15524919 978.85873927 399.99861199 980.99852871 401.953125 983.0703125 C442.08778593 1025.7319706 466.19210755 1087.87554105 466.01953125 1146.37890625 C466.01671143 1147.62357666 466.0138916 1148.86824707 466.01098633 1150.15063477 C466.00736084 1151.09092529 466.00373535 1152.03121582 466 1153 C467.19491184 1152.99723462 468.38982368 1152.99446924 469.62094498 1152.99162006 C498.01990035 1152.9265713 526.41885378 1152.87714086 554.81786729 1152.84680401 C558.31738041 1152.84305213 561.81689337 1152.83916914 565.31640625 1152.83520508 C566.01306238 1152.83441815 566.70971851 1152.83363122 567.42748544 1152.83282044 C578.69055878 1152.81978558 589.95358593 1152.79614239 601.21663192 1152.76854161 C612.7834949 1152.74043385 624.35033103 1152.7240368 635.91722655 1152.71773452 C642.40999487 1152.71382887 648.90265862 1152.70467063 655.39539337 1152.68280983 C661.51189106 1152.66238348 667.6282415 1152.65617867 673.74477005 1152.66067696 C675.98441748 1152.65985451 678.22407006 1152.65392572 680.4636879 1152.64238358 C701.00878256 1152.54173332 718.54075121 1155.07666499 733.93994141 1169.81274414 C745.43704223 1181.26498013 750.32487284 1192.07444898 754 1208 C754 1232.42 754 1256.84 754 1282 C553.03 1282 352.06 1282 145 1282 C145 1189.6993865 145 1189.6993865 164 1170 C180.57545856 1155.41721952 197.62840547 1152.53198395 218.90527344 1152.65942383 C220.8971658 1152.66027137 222.8890591 1152.65979248 224.88095093 1152.65809631 C230.2561853 1152.65723989 235.63121652 1152.67480829 241.00640392 1152.69581819 C246.63578941 1152.71464407 252.26518018 1152.71634007 257.89459229 1152.71989441 C268.54027706 1152.72919755 279.18586878 1152.75378784 289.83151269 1152.78394288 C301.95730289 1152.81754087 314.08309766 1152.83398646 326.20892286 1152.84902918 C351.13933338 1152.88033898 376.06966146 1152.93306569 401 1153 C400.62069851 1149.09013766 400.23428588 1145.18104336 399.84185791 1141.2724762 C399.64571153 1139.30492925 399.45486504 1137.33685623 399.26416016 1135.36877441 C394.6826044 1089.96382798 375.08553256 1051.01402941 344 1018 C343.34386719 1017.28972656 342.68773437 1016.57945312 342.01171875 1015.84765625 C311.21040387 983.59531583 264.28479946 964.54426975 220.1780777 962.42897034 C219.3284153 962.38794396 218.4787529 962.34691758 217.60334316 962.30464798 C205.94776272 961.80185901 194.28426389 961.86555398 182.62026133 961.88393517 C179.09950877 961.88833513 175.5787575 961.88677933 172.05800295 961.88602352 C165.90655994 961.88549419 159.75512762 961.88862884 153.60368729 961.89425278 C144.45542659 961.90259269 135.30717064 961.90507914 126.15890656 961.90637711 C110.75794819 961.90870505 95.35699503 961.9155404 79.95603943 961.92483521 C58.90744466 961.93747695 37.85885162 961.94348967 16.81025368 961.94776857 C6.98678619 961.94977433 -2.83668122 961.95210194 -12.66014862 961.95451355 C-13.64339845 961.95475456 -14.62664827 961.95499558 -15.63969355 961.95524389 C-39.01663251 961.96104879 -62.39357009 961.97000485 -85.77050781 961.97949219 C-86.79263029 961.97990583 -87.81475277 961.98031948 -88.86784866 961.98074566 C-105.44957224 961.98746051 -122.03129574 961.99436679 -138.61301923 962.001302 C-154.13752059 962.00779365 -169.66202199 962.01421767 -185.18652344 962.02050781 C-186.71703686 962.0211297 -186.71703686 962.0211297 -188.27846975 962.02176414 C-211.60081489 962.03122341 -234.92315989 962.03977093 -258.24550629 962.04548645 C-259.71833588 962.04584794 -259.71833588 962.04584794 -261.22091961 962.04621673 C-271.02732294 962.04860294 -280.8337263 962.05083082 -290.64012973 962.05282298 C-311.65625438 962.05712721 -332.67237294 962.06416926 -353.6884943 962.07687083 C-369.01545644 962.08609144 -384.34241653 962.09181934 -399.66938132 962.09398818 C-408.75514534 962.09539449 -417.8408978 962.09959992 -426.92665816 962.10793434 C-433.01800084 962.11324355 -439.10933752 962.11480789 -445.20068233 962.11350765 C-448.6564734 962.11287495 -452.11222735 962.11429267 -455.5680173 962.1192044 C-478.34158692 962.15003911 -501.26715746 962.17066297 -523.9375 959.75 C-525.16871582 959.62069092 -526.39993164 959.49138184 -527.66845703 959.3581543 C-601.38127136 951.19860088 -673.20498539 924.01170762 -733 880 C-733.67611328 879.50790039 -734.35222656 879.01580078 -735.04882812 878.50878906 C-744.75774729 871.43646264 -754.01154376 863.96626204 -763 856 C-763.88171875 855.21882812 -764.7634375 854.43765625 -765.671875 853.6328125 C-768.12728405 851.43545599 -770.56566228 849.22066544 -773 847 C-773.96679688 846.12601563 -774.93359375 845.25203125 -775.9296875 844.3515625 C-784.4380358 836.63845046 -792.76807484 828.78042292 -800.23828125 820.0390625 C-802.19605739 817.7730777 -804.22228948 815.57856506 -806.25 813.375 C-811.34943853 807.72146288 -816.00829093 801.7628393 -820.65332031 795.73632812 C-821.8983024 794.13112279 -823.16315465 792.54138163 -824.4296875 790.953125 C-835.82553702 776.53083675 -845.90714823 760.96756427 -855 745 C-855.43989258 744.23236328 -855.87978516 743.46472656 -856.33300781 742.67382812 C-882.31497006 697.04957364 -899.6195062 647.3482701 -907.8125 595.5 C-908.00739014 594.27458496 -908.20228027 593.04916992 -908.40307617 591.78662109 C-911.35364176 572.11705076 -912.35030839 552.60735025 -912.31567383 532.72583008 C-912.31252389 528.96601026 -912.33604566 525.20698852 -912.36132812 521.44726562 C-912.40656462 504.13340372 -911.17989381 487.17262771 -909 470 C-908.89767059 469.19116364 -908.79534119 468.38232727 -908.68991089 467.54898071 C-908.15165714 463.41209576 -907.51892711 459.29878128 -906.8125 455.1875 C-906.60383301 453.96780518 -906.39516602 452.74811035 -906.18017578 451.49145508 C-899.8591692 416.05366338 -888.83451012 381.77212954 -874 349 C-873.58927246 348.0836377 -873.17854492 347.16727539 -872.75537109 346.22314453 C-854.0287891 304.70488682 -827.62812268 267.53295295 -797 234 C-795.69869141 232.54207031 -795.69869141 232.54207031 -794.37109375 231.0546875 C-763.62780959 196.84632016 -725.42514794 168.88938373 -685.06103516 147.11865234 C-683.16984553 146.09218577 -681.29241289 145.04491974 -679.41796875 143.98828125 C-630.44009959 116.88829304 -574.40550552 102.4247717 -519 97 C-518.17567783 96.91678436 -517.35135566 96.83356873 -516.50205404 96.7478314 C-506.07736778 95.81340705 -495.68527068 95.8635034 -485.22697449 95.87974548 C-483.12860565 95.87930888 -481.03023687 95.87843233 -478.93186837 95.87715632 C-473.19203656 95.87492886 -467.45222354 95.87890863 -461.71239412 95.88393438 C-455.51283736 95.88826388 -449.3132816 95.88679068 -443.11372375 95.8860321 C-432.38127014 95.88550845 -421.64882404 95.88860361 -410.9163723 95.89426994 C-399.66508137 95.90019492 -388.41379286 95.90403749 -377.16250038 95.90512276 C-376.46190253 95.9051915 -375.76130467 95.90526024 -375.03947658 95.90533106 C-371.48123032 95.90566941 -367.92298405 95.90597079 -364.36473779 95.90625793 C-339.18741143 95.90835615 -314.01008824 95.91508739 -288.83276367 95.92456055 C-264.37931332 95.9337507 -239.92586384 95.94083151 -215.47241211 95.94506836 C-214.71812966 95.94519989 -213.96384721 95.94533141 -213.18670771 95.94546692 C-205.61162241 95.94678549 -198.03653711 95.9480613 -190.4614518 95.94930578 C-175.03129273 95.95184173 -159.60113372 95.95466298 -144.17097473 95.95765686 C-143.46158211 95.95779415 -142.75218948 95.95793144 -142.02130011 95.95807289 C-94.68086512 95.96726746 -47.34043322 95.98375423 0 96 C0 64.32 0 32.64 0 0 Z " fill="#ED160B" transform="translate(935,55)"/>
<path d="M0 0 C1.65412352 1.53276836 3.29979178 3.07470478 4.9375 4.625 C5.81019531 5.43324219 6.68289063 6.24148438 7.58203125 7.07421875 C18.67400821 17.6901452 37.99032365 37.45553174 38.8125 53.625 C38.52734375 55.93359375 38.52734375 55.93359375 37.9375 58.625 C37.71191406 59.87410156 37.48632812 61.12320313 37.25390625 62.41015625 C31.44637353 91.96014807 14.64155851 117.70175776 -10.17578125 134.765625 C-29.60463022 147.19629271 -49.84216091 153.625 -73.0625 153.625 C-73.0625 163.855 -73.0625 174.085 -73.0625 184.625 C-41.36560383 181.43853954 -12.5641618 174.72183198 12.9375 154.625 C13.86304688 153.903125 14.78859375 153.18125 15.7421875 152.4375 C43.66795603 130.15877054 62.75351453 97.03403442 67.515625 61.48828125 C67.9375 59.625 67.9375 59.625 69.9375 57.625 C100.93553798 51.29555769 134.40006869 61.61743989 160.21875 78.6484375 C188.70757284 99.36013916 208.6399022 129.13592157 214.36035156 164.21826172 C217.57622724 187.2396437 216.52955767 213.44088465 205.9375 234.625 C206.66710937 234.87765625 207.39671875 235.1303125 208.1484375 235.390625 C221.29754573 241.21011828 232.01868776 258.03839002 237.9375 270.625 C238.37578125 271.54410156 238.8140625 272.46320313 239.265625 273.41015625 C249.79383704 296.97178742 250.79426163 323.43922868 241.73095703 347.62792969 C231.98625837 372.15458663 214.52953996 390.69582911 190.6640625 402.08984375 C177.5969215 407.71784086 164.80582309 409.7829686 150.66821289 409.73852539 C148.83788513 409.73874443 148.83788513 409.73874443 146.97058105 409.7389679 C143.64256467 409.73839267 140.31461115 409.7333947 136.98660588 409.72639394 C133.50193166 409.72012139 130.01725651 409.71955352 126.53257751 409.71836853 C119.94189111 409.71526669 113.3512214 409.70706881 106.76054233 409.69701904 C99.2538746 409.68582222 91.74720605 409.68033847 84.24053204 409.67532361 C68.80617838 409.6648852 53.37184135 409.64730804 37.9375 409.625 C37.91733722 406.27865471 37.90525061 402.93232532 37.89453125 399.5859375 C37.8858905 398.17622681 37.8858905 398.17622681 37.8770752 396.73803711 C37.81959211 372.77281834 45.80176738 352.5691487 62.328125 335.09765625 C71.80326615 325.89201762 82.93576051 319.48083587 95.5625 315.625 C96.19365723 315.4293042 96.82481445 315.2336084 97.47509766 315.03198242 C104.37875241 313.13786712 110.49102111 313.15689135 117.9375 312.625 C117.9375 302.395 117.9375 292.165 117.9375 281.625 C97.7252918 284.04029532 80.75806776 287.64962408 62.9375 297.625 C61.93976562 298.18058594 60.94203125 298.73617188 59.9140625 299.30859375 C52.36695661 303.81739483 46.23522181 309.56321589 39.9375 315.625 C39.29039062 316.19734375 38.64328125 316.7696875 37.9765625 317.359375 C17.40572132 336.09525852 8.92769151 366.42619179 7.65161133 393.23095703 C7.56427986 395.19817015 7.47861107 397.16545772 7.39453125 399.1328125 C7.32764099 400.65177124 7.32764099 400.65177124 7.25939941 402.20141602 C7.15063961 404.67588405 7.04337252 407.15040703 6.9375 409.625 C-41.29323611 409.71664548 -89.52396297 409.78708436 -137.75476905 409.82926132 C-143.4546769 409.83426387 -149.15458459 409.83944119 -154.85449219 409.84472656 C-156.55654615 409.84630043 -156.55654615 409.84630043 -158.29298504 409.84790608 C-176.64255346 409.86528995 -194.99207152 409.8968165 -213.34161012 409.93361118 C-232.18352066 409.97107681 -251.02540491 409.99324772 -269.86735117 410.00135398 C-281.48475171 410.0068301 -293.10200988 410.02409776 -304.71936657 410.05666587 C-312.69631526 410.0778832 -320.67319083 410.08418377 -328.65016566 410.07900551 C-333.2457978 410.07645493 -337.84118195 410.08023971 -342.43676949 410.1018219 C-346.65680607 410.12149405 -350.87643131 410.12213837 -355.09648807 410.10859558 C-356.61093859 410.10692541 -358.12541632 410.11182333 -359.63981442 410.12453273 C-387.06114549 410.34099509 -410.99624602 400.34434104 -431.0625 381.625 C-451.3506366 360.08885499 -458.97874362 334.29965656 -458.19433594 305.35888672 C-457.01532638 280.90972176 -444.84779092 258.49457896 -427.43359375 241.69140625 C-414.03748174 230.01670567 -396.12447929 219.28746672 -377.9375 218.125 C-358.72959599 220.60343923 -342.55762649 232.42599262 -330.0625 246.625 C-327.46399525 250.15876424 -325.21263267 253.80437964 -323.0625 257.625 C-322.60101563 258.42550781 -322.13953125 259.22601562 -321.6640625 260.05078125 C-315.47188271 271.51569595 -313.0625 283.715653 -313.0625 296.625 C-302.8325 296.625 -292.6025 296.625 -282.0625 296.625 C-285.53187831 265.94839175 -293.53859477 242.48922167 -315.0625 219.625 C-315.60132813 219.02171875 -316.14015625 218.4184375 -316.6953125 217.796875 C-329.04483266 204.51648648 -345.70312854 197.57392077 -362.0625 190.625 C-362.98081755 165.0481557 -356.21616498 140.45129791 -338.625 121.25 C-336.80246762 119.33871713 -334.94146774 117.48252445 -333.0625 115.625 C-331.87720703 114.42423828 -331.87720703 114.42423828 -330.66796875 113.19921875 C-312.16814347 95.43570492 -288.09196163 88.86790135 -263.0625 87.625 C-262.85270508 86.82002075 -262.85270508 86.82002075 -262.63867188 85.9987793 C-250.78647669 41.12907414 -225.68110149 5.1558457 -185.46655273 -18.80175781 C-169.70121086 -27.90670758 -152.85054894 -33.7156324 -135.0625 -37.375 C-133.89589844 -37.62121094 -132.72929688 -37.86742187 -131.52734375 -38.12109375 C-84.31594855 -46.12770463 -35.63197808 -31.48611899 0 0 Z " fill="#ED160B" transform="translate(721.0625,350.375)"/>
<path d="M0 0 C53.13 0 106.26 0 161 0 C161 42.57 161 85.14 161 129 C107.87 129 54.74 129 0 129 C0 86.43 0 43.86 0 0 Z " fill="#EC160B" transform="translate(1304,1784)"/>
<path d="M0 0 C53.13 0 106.26 0 161 0 C161 42.57 161 85.14 161 129 C107.87 129 54.74 129 0 129 C0 86.43 0 43.86 0 0 Z " fill="#EC160B" transform="translate(1080,1784)"/>
<path d="M0 0 C53.13 0 106.26 0 161 0 C161 42.57 161 85.14 161 129 C107.87 129 54.74 129 0 129 C0 86.43 0 43.86 0 0 Z " fill="#EC160B" transform="translate(1528,1592)"/>
<path d="M0 0 C53.13 0 106.26 0 161 0 C161 42.57 161 85.14 161 129 C107.87 129 54.74 129 0 129 C0 86.43 0 43.86 0 0 Z " fill="#EC160B" transform="translate(1304,1592)"/>
<path d="M0 0 C53.13 0 106.26 0 161 0 C161 42.57 161 85.14 161 129 C107.87 129 54.74 129 0 129 C0 86.43 0 43.86 0 0 Z " fill="#EC160B" transform="translate(1528,1400)"/>
<path d="M0 0 C53.13 0 106.26 0 161 0 C161 42.57 161 85.14 161 129 C107.87 129 54.74 129 0 129 C0 86.43 0 43.86 0 0 Z " fill="#EC160B" transform="translate(1080,1400)"/>
<path d="M0 0 C53.13 0 106.26 0 161 0 C161 42.57 161 85.14 161 129 C107.87 129 54.74 129 0 129 C0 86.43 0 43.86 0 0 Z M56.27734375 43.88671875 C49.28492798 52.63153356 47.8736952 60.85214229 49 72 C51.308518 81.22033084 57.94586034 88.17656672 65.91015625 92.9921875 C73.35569356 96.58274568 81.52306403 97.46942185 89.5625 95.3125 C91.84367255 94.36201144 93.8894426 93.28398929 96 92 C96.69867187 91.5875 97.39734375 91.175 98.1171875 90.75 C104.82783673 86.29311598 109.06063189 79.72829318 111.4375 72.0625 C112.9201816 64.57344498 111.87439562 55.63093284 108 49 C102.07659589 40.8600155 95.0405676 35.01609807 85 33 C73.67346327 31.85412469 63.94105861 35.49312628 56.27734375 43.88671875 Z " fill="#ED160B" transform="translate(1080,1592)"/>
<path d="M0 0 C53.13 0 106.26 0 161 0 C161 42.57 161 85.14 161 129 C107.87 129 54.74 129 0 129 C0 86.43 0 43.86 0 0 Z M55.75 45.1875 C50.68387806 51.4717059 48.2174605 59.42867429 48.625 67.46484375 C49.99285521 76.71211491 53.85784727 83.94852084 61 90 C69.51847324 96.0542453 77.71376449 97.32614023 88 96 C96.38882314 93.90279421 103.19792202 88.08987364 107.875 80.9375 C112.29362466 73.12679984 113.5416018 65.0963344 111.3125 56.28125 C107.53793586 46.08992682 101.85891057 39.64668033 92 35 C77.95326827 29.75454183 65.61091422 34.90749693 55.75 45.1875 Z " fill="#EC160B" transform="translate(1528,1784)"/>
<path d="M0 0 C53.13 0 106.26 0 161 0 C161 42.57 161 85.14 161 129 C107.87 129 54.74 129 0 129 C0 86.43 0 43.86 0 0 Z M55 45 C49.37750042 54.07939526 47.19029939 63.19430339 49.6484375 73.796875 C52.99228719 82.99960663 59.25260397 89.68741154 68 94 C75.53300911 96.9847772 83.58205606 97.18316391 91.1875 94.375 C101.60643105 89.61960833 107.2459379 83.13552454 111.375 72.4375 C112.97707458 63.62608982 112.21198083 55.39682416 107.55859375 47.578125 C102.19415796 40.1600189 95.17685953 34.58221716 86 33 C73.60838062 31.75695354 63.1509406 35.3923652 55 45 Z " fill="#EC160B" transform="translate(1304,1400)"/>
</svg>
